<?xml version="1.0" encoding="UTF-8"?>
<svg
        width="160.00107"
        height="56.523998"
        viewBox="0 0 42.333615 14.955307"
        version="1.1"
        xmlns="http://www.w3.org/2000/svg">
    <g transform="matrix(0.88776989,0,0,0.8933009,0.78907702,1.9035731)">
        <text
                style="font-size:6.08542px;font-family:sans-serif;fill:#51cf66;"
                x="-1.2600409"
                y="14.549827">
            <tspan x="-1.2600409" y="14.549827">ChitChatConnect</tspan>
        </text>
        <g style="fill:#51cf66;" transform="matrix(0.52916665,0,0,0.52916665,-2.133745,-1.7167586)">
            <path d="m 43.246541,9.2172885 h 0.01 m 3.99,0 h 0.01 m 3.99,0 h 0.01 m 4.9939,0 c 0,4.9706005 -4.0294,9.0000005 -9,9.0000005 -2.0364,0 -8.99927,0 -8.99927,0 0,0 1.55919,-3.7439 0.93519,-4.9992 -0.59906,-1.2052 -0.93591,-2.5636 -0.93591,-4.0008005 0,-4.97056 4.02943,-8.99999998 8.99999,-8.99999998 4.9706,0 9,4.02943998 9,8.99999998 z" stroke="#000000" stroke-width="2" stroke-linecap="round" stroke-linejoin="round"/>
        </g>
    </g>
</svg>
