<svg width="229" height="40" viewBox="0 0 229 40" fill="none" xmlns="http://www.w3.org/2000/svg">
    <path fill-rule="evenodd" clip-rule="evenodd" d="M13.0855 0.482064C12.8947 1.49304 12.6162 1.86513 11.0022 3.2699C10.3322 3.85282 10.069 4.24241 9.80473 5.04232C9.63473 5.55693 9.60598 5.77614 9.60723 6.54794C9.61123 8.86086 10.7402 10.617 12.3267 10.7785C12.5557 10.8019 12.8405 10.7958 12.9597 10.765C13.1617 10.7127 13.145 10.6999 12.7185 10.5805C12.0515 10.3936 11.6925 10.187 11.2802 9.752C10.5665 8.99993 10.2787 8.07969 10.2772 6.54794C10.2755 4.90152 10.4747 4.45201 11.7607 3.20061C12.421 2.55778 12.7057 2.22144 12.857 1.90483C13.112 1.37148 13.2307 0.838619 13.2 0.365185L13.1765 0L13.0855 0.482064ZM16.3505 1.09778C14.3855 2.39207 13.8085 5.54362 15.2285 7.22529L15.419 7.45141L15.2333 6.94099C14.725 5.54584 14.8783 3.62522 15.6073 2.25695C15.7395 2.00864 16.0785 1.57663 16.3603 1.29726C16.6423 1.01764 16.8608 0.789303 16.846 0.789303C16.8313 0.789303 16.6083 0.927881 16.3505 1.09778ZM17.4505 1.19271C17.073 1.37148 16.654 1.61954 16.52 1.74406C16.222 2.02122 16.1243 2.33585 16.2863 2.49613C16.3888 2.59698 16.4253 2.59698 16.6205 2.49564C16.8443 2.3795 18.314 0.863277 18.2 0.865743C18.1658 0.86673 17.8283 1.01369 17.4505 1.19271ZM20.0838 1.08915C19.7688 1.1715 19.1875 1.39614 18.792 1.58847C17.301 2.31268 16.283 3.66542 15.994 5.30591C15.8348 6.21012 15.888 7.25612 16.1435 8.25008C16.3623 9.10054 16.626 9.63981 17.2985 10.6108C17.5715 11.0054 17.786 11.3279 17.7755 11.3272C17.7648 11.3267 17.538 11.2589 17.2715 11.1767C16.1333 10.8246 15.3168 10.8961 13.3672 11.5187C11.7705 12.0284 11.644 12.0597 10.7952 12.1542C9.09573 12.3431 7.94848 11.8181 7.34723 10.5756C7.16922 10.2074 7.14722 10.0733 7.15072 9.37104C7.15422 8.68209 7.18172 8.51787 7.36498 8.09128C7.48048 7.82202 7.59623 7.55127 7.62198 7.48889C7.65448 7.41072 7.61723 7.42083 7.50023 7.52218C7.40748 7.60256 7.20422 7.92262 7.04847 8.23332C6.76897 8.79059 6.76522 8.81056 6.76522 9.70564C6.76522 10.5477 6.78097 10.6471 6.98622 11.0853C7.27747 11.7074 7.99223 12.3783 8.60373 12.6042C9.29573 12.8594 9.71123 12.9208 10.5755 12.8952C11.0197 12.8821 11.3745 12.8895 11.364 12.9117C11.3302 12.9817 10.7502 13.8753 10.2762 14.5872C9.51748 15.7269 8.68048 16.2632 7.52473 16.3507C6.57597 16.4225 5.64397 16.0556 4.82972 15.2895L4.33971 14.8288L4.55022 15.1676C5.18972 16.1966 6.21547 16.7492 7.48323 16.7475C9.07123 16.7453 10.0875 16.118 11.2932 14.3961C11.5962 13.9633 11.9825 13.4995 12.1515 13.3656C12.582 13.0244 13.6177 12.4984 14.208 12.3214C16.3058 11.6918 18.1463 12.5238 18.4785 14.2518C18.555 14.6488 18.4703 15.3575 18.3118 15.65C18.239 15.7838 18.2265 15.7787 18.137 15.575C17.7408 14.6733 16.3915 14.0166 15.1895 14.1404C14.2327 14.239 13.3725 14.708 12.1767 15.7829C11.5257 16.368 11.1885 16.6077 10.6267 16.8841L9.90848 17.2377L8.75648 17.234C7.85873 17.231 7.53073 17.2019 7.26847 17.1013C6.71272 16.8885 6.81697 17.0274 7.42773 17.3136C8.30623 17.7252 9.38523 17.792 10.4665 17.5023C11.1197 17.3272 11.3912 17.1583 12.7352 16.0923C13.6115 15.397 14.069 15.1432 14.7603 14.9687C15.6628 14.7406 16.4288 14.9381 16.9823 15.5424C17.341 15.9343 17.4123 16.1222 17.4123 16.6767C17.4123 17.2234 17.2835 17.5573 16.7105 18.4935C16.465 18.8945 16.164 19.4364 16.041 19.6981C15.7485 20.3219 15.556 21.2892 15.594 21.9493C15.6105 22.2354 15.5958 22.4696 15.5615 22.4696C15.412 22.4696 14.674 22.0465 14.2127 21.6966C13.6462 21.2666 12.8965 20.9026 12.1077 20.6743C10.5185 20.2142 9.15523 20.2603 7.03747 20.8461C5.34872 21.3132 4.58747 21.3575 3.73296 21.039C2.96421 20.7527 2.06471 19.9454 1.66545 19.1842C1.5557 18.9746 1.5562 18.945 1.67095 18.8316C1.89221 18.6134 1.80571 18.2447 1.31595 17.3218L0.849952 16.4437V17.4051C0.849952 18.474 0.964952 18.8723 1.2862 18.9174C1.41145 18.9349 1.4682 19.0086 1.50495 19.2015C1.57195 19.5533 2.06996 20.2968 2.53021 20.7322C3.53546 21.6828 5.06222 22.0058 6.80322 21.6359C9.21273 21.124 9.36148 21.1001 9.93248 21.1329C10.669 21.1748 11.117 21.3684 12.0675 22.0539L12.8135 22.5919L12.1985 22.6805C11.7455 22.7455 11.3927 22.8605 10.856 23.1181C10.2352 23.416 10.026 23.5684 9.43573 24.154C8.63573 24.9475 8.30773 25.5065 7.79573 26.9485C7.22072 28.5676 6.71897 29.2794 5.85922 29.6969C5.43547 29.9028 5.30797 29.9282 4.70022 29.9284C3.14646 29.9292 2.00221 29.1293 1.4187 27.6352C1.19795 27.0693 1.1782 27.1766 1.38295 27.8305C1.88596 29.4368 3.33871 30.4413 5.04022 30.3597C6.68522 30.2808 7.63273 29.3549 8.48273 26.9951C8.90123 25.8335 9.77498 24.6854 10.6635 24.1294C11.5067 23.6017 12.8252 23.4266 13.891 23.7008C14.9795 23.9809 16.238 24.8252 16.951 25.7541C17.358 26.2847 17.4205 26.4324 17.2023 26.3488C16.8433 26.2112 16.1555 26.1449 15.466 26.1809C12.893 26.3153 11.0612 27.944 10.6985 30.4191C10.476 31.9371 10.7477 33.1384 11.486 33.8994C12.1267 34.5599 12.8132 34.7242 13.754 34.4423C14.2375 34.2976 14.37 34.2157 14.777 33.8116C15.1758 33.4156 15.2928 33.2314 15.574 32.557C16.026 31.4733 16.169 31.2047 16.4473 30.913C16.877 30.4628 17.6968 30.1602 18.223 30.2576L18.5023 30.3094L18.459 31.2637C18.4088 32.3826 18.2345 33.1152 17.804 34.0217C17.0355 35.639 15.9035 36.758 14.199 37.5852C13.2972 38.0229 12.4927 38.2421 11.497 38.3208C10.8212 38.3743 10.8145 38.3765 11.088 38.4705C11.6142 38.651 12.524 38.7521 13.2405 38.7101C13.871 38.6729 14.4557 38.5296 15.1605 38.2402C15.3088 38.1793 15.3093 38.1817 15.1755 38.3324C14.9695 38.5642 14.2075 38.9409 13.7002 39.0623C13.2587 39.1675 13.2567 39.1693 13.5577 39.1809C13.7257 39.1875 13.9317 39.206 14.0157 39.2215C14.0997 39.2373 14.5008 39.2166 14.9068 39.1759C16.0105 39.065 16.8928 38.7486 17.5393 38.2315C17.7143 38.0915 17.8733 37.9771 17.8925 37.9771C17.9815 37.9771 18.015 38.4793 17.9433 38.741C17.8303 39.1552 17.4728 39.5206 16.929 39.7781L16.4603 40L16.8028 39.9596C17.996 39.8183 18.8188 39.461 19.4688 38.8021L19.8848 38.3805L20.1195 38.687C20.4345 39.0978 21.2025 39.5961 21.804 39.7793C22.4125 39.9647 23.5888 40.0636 23.793 39.9465C23.9245 39.8713 23.9185 39.8634 23.7308 39.8612C22.944 39.8525 21.8773 39.0287 21.6488 38.2535C21.58 38.0205 21.5345 37.7268 21.5478 37.6013L21.5718 37.3729L21.9535 37.6466C22.469 38.0165 23.4353 38.4613 24.13 38.649C25.2005 38.938 26.612 38.9861 27.6013 38.7673C27.899 38.7013 29.0133 38.3477 29.0133 38.3191C29.0133 38.3067 28.6416 38.2951 28.1873 38.2932C27.7328 38.2912 27.1428 38.2505 26.8758 38.2027C25.24 37.9102 23.8858 36.9062 23.1705 35.4553C22.728 34.5577 22.5273 33.7218 22.4743 32.557L22.4318 31.6158L22.6308 31.4341C22.7748 31.3024 22.941 31.2437 23.2313 31.222C23.8578 31.1751 24.2068 31.3936 24.8538 32.2372C25.1475 32.6203 25.553 33.0494 25.7548 33.1904C26.1763 33.4856 26.4965 33.5721 27.7158 33.7196C28.1985 33.778 28.6538 33.8488 28.7273 33.8769C28.8006 33.905 28.8608 33.9082 28.8608 33.8838C28.8608 33.7748 28.1815 33.5164 27.442 33.3441C26.0625 33.0225 25.8725 32.896 25.118 31.7955C24.822 31.364 24.5543 31.0699 24.3175 30.9152C23.9145 30.6519 23.2515 30.4894 22.8155 30.5471L22.5215 30.5858L22.5673 30.3104C22.5923 30.159 22.6785 29.812 22.7585 29.5393C23.271 27.795 25.4643 27.452 27.4633 28.8035C27.639 28.9224 28.0788 29.29 28.4408 29.6207C30.0058 31.0509 31.0106 31.5006 32.6388 31.5006C33.0588 31.5006 33.6218 31.4496 33.8903 31.3872C35.0163 31.1253 36.0678 30.3454 36.4948 29.4548C36.8048 28.8082 36.7813 28.6652 36.4548 29.2114C36.1113 29.7852 35.4473 30.3853 34.8003 30.7071C33.6188 31.2945 32.0873 31.238 30.6348 30.5535C30.1763 30.3373 29.8791 30.1008 28.9043 29.1769C27.8993 28.2238 27.6298 28.0115 27.054 27.7191C26.0983 27.2336 25.381 27.0336 24.5755 27.0282C24.2125 27.0257 23.9318 26.9976 23.9513 26.9658C23.9713 26.9337 24.1833 26.8099 24.423 26.6906C25.8153 25.9972 27.6703 25.8677 29.1756 26.3584C29.7736 26.5532 30.1866 26.7761 31.6201 27.6769C33.6938 28.9798 36.1226 28.7739 37.8188 27.1512C38.7783 26.2339 39.4771 24.7749 39.4656 23.7146L39.4616 23.3351L39.3216 23.7666C39.1228 24.3804 38.6018 25.3583 38.1596 25.9479C36.8523 27.6912 35.1228 28.3439 33.3881 27.7484C32.7906 27.5433 32.5726 27.4153 30.9216 26.3002C29.7168 25.4868 28.4633 25.0585 27.0465 24.9761L26.2623 24.9307L26.6278 24.7248C27.183 24.4122 27.7495 23.8727 28.3663 23.0696C29.0113 22.2292 29.2731 21.9925 29.8531 21.7242C30.4221 21.4609 31.4993 21.451 32.1488 21.703C32.6746 21.9072 33.1631 22.3106 33.3831 22.7221C33.6141 23.1544 33.6113 23.8954 33.3768 24.3565C33.2801 24.5471 33.2598 24.6255 33.3296 24.5397C33.8491 23.901 33.9321 23.0846 33.5526 22.3513C33.2703 21.8061 32.6193 21.287 31.9618 21.0831C31.3538 20.8945 30.3388 20.9026 29.7686 21.1009C28.9896 21.3714 28.6008 21.6751 27.7955 22.6422C27.0925 23.4868 26.662 23.8189 25.6608 24.2886C23.5433 25.2819 23.5923 25.2535 23.03 25.8093C22.2455 26.5848 21.853 27.3216 21.48 28.7177L21.41 28.9811L21.2805 28.6031C21.039 27.8964 20.9255 27.1761 20.9255 26.3464C20.9253 25.3731 21.0605 24.7305 21.3955 24.1104C21.7423 23.4685 22.121 23.0794 23.2105 22.2452C23.743 21.8376 24.3445 21.3233 24.5475 21.1023C25.1375 20.459 25.731 19.4986 26.0695 18.638C26.382 17.844 26.3863 17.8379 26.861 17.5291C27.8253 16.9018 29.2428 16.6119 30.6836 16.7475C33.1336 16.9775 35.6911 18.0406 36.9573 19.3548C37.7523 20.1804 38.0913 20.9287 38.1023 21.8835L38.1083 22.4317L38.2528 22.1308C38.4308 21.7595 38.4478 20.9943 38.2891 20.4679C37.9161 19.2291 36.6138 17.9639 34.9141 17.1889C32.2966 15.9954 29.5096 15.702 27.395 16.3973L26.6543 16.6407L26.9368 16.1226C28.0525 14.0785 30.1893 13.0268 32.3208 13.4722C33.2193 13.6601 33.8456 14.0181 34.2243 14.5606C34.4278 14.852 34.4423 14.706 34.2506 14.2984C34.0366 13.844 33.6076 13.4497 33.0383 13.1839C32.4013 12.8868 31.9126 12.8091 30.9621 12.8535C30.0078 12.8984 29.2271 13.1107 28.4081 13.5481C28.1381 13.6924 27.907 13.8001 27.8945 13.7875C27.8818 13.7752 28.051 13.4961 28.2705 13.1676C29.0446 12.0099 30.0141 11.2751 31.1601 10.9775C31.8808 10.7901 33.0496 10.8108 33.6061 11.0209C34.4218 11.3281 34.9403 12.0314 35.1226 13.0784C35.2726 13.9367 35.0396 14.837 34.4321 15.7483L34.1921 16.1083L34.5746 15.7128C36.1371 14.098 35.8051 11.4322 33.9336 10.564C33.3021 10.2711 32.7061 10.1761 31.7611 10.2183C30.0093 10.2965 28.6338 11.1777 27.4388 12.9881C26.7888 13.9732 26.0288 15.0167 25.962 15.0167C25.9345 15.0167 25.851 14.8219 25.7763 14.5837C25.5505 13.8637 25.1595 13.2645 24.3558 12.4077C23.214 11.1903 22.8213 10.2713 22.9458 9.1072C23.082 7.83016 23.65 6.76049 24.7508 5.70784C25.9845 4.52795 27.5438 3.94775 29.1953 4.05452C30.4973 4.1386 31.6116 4.47962 32.6771 5.1195L33.2496 5.46323L32.9058 5.16388C32.1778 4.52894 30.9873 3.9655 29.9343 3.75739C29.0631 3.58528 27.67 3.63977 26.9143 3.8755C25.3965 4.34894 24.1493 5.28224 23.2623 6.60835C22.551 7.67111 22.2778 8.47866 22.2758 9.5212C22.274 10.6668 22.6395 11.5977 23.5175 12.6831C24.4298 13.8105 24.6908 14.5421 24.687 15.9577C24.6825 17.4986 24.282 18.5618 23.3683 19.4581C22.868 19.9488 22.1543 20.3643 21.624 20.4741L21.371 20.5263L21.911 19.8228C22.5365 19.0086 23.2155 17.7109 23.4413 16.8986C23.9428 15.0944 23.5823 13.4874 22.4178 12.3371C21.9638 11.8889 21.7338 11.7343 20.9838 11.374C19.9485 10.8767 19.5235 10.5137 19.2058 9.85631C19.0208 9.47411 18.984 9.28942 18.954 8.59628C18.9348 8.14997 18.9008 7.80229 18.879 7.82374C18.8565 7.84569 18.7963 8.08685 18.744 8.3603C18.4643 9.82844 19.144 11.0549 20.672 11.8391C22.2295 12.638 22.909 13.644 22.9063 15.1459C22.9038 16.6745 22.3843 17.8855 20.9923 19.6088C19.7423 21.1566 19.402 21.7471 19.1933 22.7312C19.132 23.02 19.0675 23.271 19.0495 23.2885C18.9925 23.3445 18.6565 22.5226 18.567 22.1081C18.5195 21.8887 18.4808 21.4098 18.4808 21.0439C18.4808 20.1947 18.69 19.465 19.3505 18.011C20.0313 16.5118 20.1178 16.17 20.117 14.979C20.1165 14.0815 20.097 13.9471 19.8843 13.3533C19.5678 12.472 19.2355 11.9101 18.2795 10.6404C16.9705 8.90204 16.572 7.89007 16.5733 6.30703C16.5745 4.33513 17.367 2.82754 18.8233 2.02738C19.9295 1.41956 21.4383 1.16189 22.988 1.31625C23.494 1.36655 23.925 1.39121 23.9455 1.37099C23.966 1.35077 23.698 1.25608 23.3498 1.1609C22.4433 0.913087 20.888 0.878812 20.0838 1.08915ZM24.7393 1.58872C23.5463 1.9724 23.1365 2.23303 23.1365 2.60833C23.1365 2.77107 23.1805 2.82951 23.3323 2.86699C23.4398 2.89362 23.5903 2.88573 23.6668 2.84973C23.8383 2.76836 25.2428 1.46395 25.1498 1.47233C25.113 1.47554 24.9283 1.52806 24.7393 1.58872ZM19.943 1.92333C19.8445 1.96229 19.7468 2.05919 19.7255 2.13908C19.7033 2.22292 19.6433 2.26755 19.583 2.24511C19.4323 2.18791 18.7115 2.53287 18.3775 2.82211C18.1115 3.05266 17.6413 3.65284 17.6413 3.76207C17.6413 3.78821 17.8288 3.64692 18.0573 3.44793C18.2863 3.24894 18.7523 2.92888 19.0933 2.73655C19.6508 2.42216 19.7353 2.39553 19.935 2.46975C20.1003 2.53139 20.2688 2.52794 20.5973 2.45594C20.8398 2.40292 21.2353 2.32032 21.4768 2.27224C21.718 2.2244 21.9155 2.16448 21.9155 2.13908C21.9155 2.11418 21.6788 2.03725 21.3895 1.9682C20.8138 1.83135 20.2225 1.81286 19.943 1.92333ZM14.2067 2.18791C13.523 2.57109 12.983 3.28568 13.1007 3.65185C13.1902 3.92975 13.3647 3.80128 13.6407 3.25461C13.7925 2.95428 14.075 2.54791 14.2687 2.35114C14.4623 2.15437 14.605 1.99385 14.5855 1.99459C14.5663 1.99508 14.3955 2.08212 14.2067 2.18791ZM25.059 2.52794C24.0978 2.6892 23.1703 3.39072 22.752 4.2725C22.509 4.78489 22.298 5.62302 22.3025 6.05872C22.3048 6.26536 22.346 6.1862 22.494 5.6923C22.7735 4.75925 23.0435 4.26707 23.5555 3.75616C24.087 3.22576 24.7243 2.89436 25.6275 2.67909C26.0118 2.58761 26.1453 2.53287 25.9988 2.5272C25.873 2.52227 25.7013 2.50526 25.6173 2.48898C25.5333 2.47295 25.2823 2.49046 25.059 2.52794ZM16.0583 2.76762C15.6943 3.15968 15.3903 4.02098 15.3215 4.85418C15.2853 5.29605 15.289 5.3143 15.361 5.04232C15.5598 4.28976 15.7725 3.72114 16.0428 3.21886C16.3378 2.67046 16.3453 2.45865 16.0583 2.76762ZM12.5657 3.13083C11.5717 3.92235 11.1537 4.46064 11.1537 4.94887C11.1537 5.2566 11.269 5.38087 11.5542 5.38087C11.8997 5.38087 12.0997 5.1047 12.4027 4.20715C12.5562 3.7527 12.7687 3.25511 12.8747 3.10124C13.121 2.7437 13.0422 2.7511 12.5657 3.13083ZM22.4285 3.2048C21.6948 3.95589 21.296 5.17473 21.4578 6.17314C21.5378 6.6658 21.7675 7.35278 21.923 7.56385C21.99 7.65508 21.9955 7.64769 21.9513 7.52637C21.848 7.24403 21.8175 5.43266 21.9088 4.99941C22.029 4.42735 22.3625 3.75813 22.743 3.32439C22.9175 3.12565 23.0605 2.9311 23.0605 2.89214C23.0605 2.71214 22.7695 2.85614 22.4285 3.2048ZM9.33348 3.55544C8.09873 4.75777 7.78098 6.39013 8.49298 7.87454C8.71698 8.34181 9.22848 9.03643 9.29798 8.96788C9.31748 8.94864 9.24748 8.80267 9.14223 8.64362C8.70198 7.97835 8.43873 6.65841 8.55973 5.71968C8.67398 4.82952 8.89873 4.32625 9.52573 3.55544C9.75323 3.27582 9.92048 3.04724 9.89723 3.04724C9.87423 3.04724 9.62048 3.27582 9.33348 3.55519M19.0718 3.39812C18.9035 3.46716 18.767 3.58207 18.7418 3.67676C18.718 3.76528 18.5705 3.9258 18.4135 4.03381C17.553 4.6256 17.0883 6.12111 17.3653 7.40628C17.4753 7.91621 17.9095 8.98267 17.9783 8.91141C17.9943 8.89489 17.9403 8.62735 17.8585 8.31691C17.4465 6.75137 17.6735 5.4006 18.5158 4.40614C18.7248 4.15956 18.8508 4.07696 19.037 4.06537C19.172 4.05698 19.4213 3.97956 19.5913 3.8935C19.7613 3.80769 20.0358 3.71325 20.2018 3.68391C20.7105 3.59341 20.7328 3.53399 20.309 3.39911C19.8238 3.2445 19.4483 3.24426 19.0718 3.39812ZM25.7018 3.46297C25.1285 3.61832 24.4375 3.98375 24.001 4.3625C23.6405 4.67516 22.984 5.53178 22.984 5.6891C22.984 5.7251 23.2015 5.54016 23.4668 5.2783C24.279 4.4774 25.3953 3.82397 26.5013 3.50243L26.9913 3.3599L26.533 3.36089C26.2813 3.36138 25.9073 3.40725 25.7018 3.46297ZM20.6953 4.11986C19.947 5.39887 20.0143 6.95603 20.8593 7.90512C21.1403 8.22074 21.6275 8.48631 21.8643 8.45302C22.01 8.43255 21.996 8.40987 21.7483 8.26562C21.3705 8.04517 20.965 7.48297 20.7543 6.88649C20.5073 6.18744 20.5223 5.12024 20.7908 4.30825C20.8968 3.98745 20.9708 3.72484 20.955 3.72484C20.9393 3.72484 20.8228 3.90263 20.6953 4.11986ZM13.6685 4.54891C13.533 4.98856 13.5082 5.22282 13.5332 5.81781C13.56 6.45227 13.5977 6.61969 13.8225 7.09781C14.042 7.56508 14.2245 7.78996 14.385 7.78996C14.4045 7.78996 14.2867 7.40752 14.1232 6.94C13.7892 5.98524 13.6915 5.22824 13.8107 4.51513C13.852 4.26682 13.8742 4.05156 13.8602 4.03677C13.846 4.02197 13.7597 4.25252 13.6685 4.54891ZM9.20848 4.74988C8.92573 5.70833 8.86098 6.80635 9.04173 7.5641C9.25048 8.43896 9.29073 8.28115 9.28573 6.6049C9.28323 5.70389 9.30448 4.83149 9.33323 4.66579C9.41023 4.21948 9.35323 4.2577 9.20823 4.74963M19.3113 4.64705C18.5833 5.23416 18.1678 6.27275 18.1835 7.46596C18.192 8.1115 18.1685 8.15071 18.486 6.9617C18.6843 6.219 19.232 5.12468 19.6278 4.68157C20.0328 4.22786 19.8553 4.20814 19.3113 4.64705ZM12.669 4.64483C12.1792 5.29728 11.9167 5.9808 11.9175 6.60169C11.918 6.97477 11.9242 6.98784 12.0175 6.81129C12.0725 6.70772 12.2415 6.44487 12.3932 6.22714C12.5992 5.93198 12.6822 5.72115 12.7197 5.39912C12.7472 5.16142 12.8002 4.85023 12.8372 4.70771C12.9272 4.36299 12.891 4.34918 12.669 4.64483ZM27.8305 4.59502C26.9873 4.75777 25.8675 5.34537 25.1628 5.99461C24.5863 6.5255 24.1238 7.11458 23.8718 7.6393C23.802 7.78429 23.7885 7.83854 23.8418 7.75988C24.1788 7.26006 24.887 6.46583 25.258 6.17116C26.1478 5.46471 27.3398 5.01224 28.6451 4.88525L29.1548 4.83569L29.4468 5.13651C29.7088 5.40676 29.7976 5.4472 30.3111 5.52956C30.6261 5.58036 31.1558 5.68614 31.4881 5.76455C31.8206 5.84297 32.1036 5.89647 32.1166 5.88365C32.1298 5.87058 31.7458 5.60107 31.2633 5.28446C30.3046 4.65519 29.8693 4.48727 29.5253 4.61426C29.3648 4.67344 29.2473 4.66604 29.0508 4.58516C28.7391 4.45669 28.5373 4.45842 27.8305 4.59502ZM7.48148 5.02383C7.07097 5.27484 6.77747 5.54016 6.46897 5.93888C6.01822 6.52131 6.12072 7.18757 6.66147 7.18757C7.01247 7.18757 7.11722 7.03469 7.18697 6.4207C7.26197 5.76036 7.41548 5.35326 7.69948 5.06106C7.94273 4.81029 7.85448 4.79525 7.48148 5.02383ZM11.0882 5.588C10.9917 5.76751 10.7662 6.5292 10.7997 6.56249C10.8217 6.58394 11.0987 6.00521 11.2845 5.55027C11.3435 5.40529 11.1685 5.43882 11.0882 5.588ZM28.174 5.5091C28.069 5.52833 27.956 5.56975 27.9228 5.60132C27.8895 5.63263 28.4905 5.86787 29.2586 6.12407C31.0698 6.72893 31.0061 6.71241 30.7691 6.51169C29.9701 5.83433 28.8191 5.38975 28.174 5.5091ZM12.8795 6.25254C12.6575 6.94691 12.606 7.4196 12.7222 7.69602C12.9252 8.17833 13.4435 7.91794 13.4435 7.33354C13.4435 7.18387 13.3467 6.78539 13.2282 6.44832L13.0127 5.83507L12.8795 6.25254ZM26.5885 6.07426C25.3755 6.2518 24.23 7.43834 23.9505 8.80637C23.9135 8.98785 23.9335 8.96936 24.0513 8.71341C24.2705 8.23726 24.7508 7.57223 25.1693 7.16538C25.8145 6.53808 26.8593 6.1507 27.6398 6.24933C27.9113 6.2836 27.9548 6.27497 27.8478 6.2084C27.6325 6.07475 27.0265 6.01015 26.5885 6.07426ZM30.4308 7.07784C28.7508 7.49653 27.484 8.73979 27.105 10.3411C27.0045 10.7647 27.0385 11.5242 27.1725 11.8551C27.24 12.0225 27.249 12.0048 27.2533 11.696C27.2618 11.087 27.4013 10.5549 27.7205 9.91475C28.2481 8.85618 29.1891 8.06416 30.3876 7.67086C30.9398 7.48938 32.1426 7.48642 32.8301 7.6647C33.9341 7.95098 35.4288 8.86481 36.1248 9.67877C36.2991 9.88244 36.4566 10.0346 36.4748 10.0166C36.4931 9.99858 36.3936 9.76976 36.2536 9.50789C35.7141 8.50011 34.5308 7.60873 33.1733 7.18757C32.4713 6.97008 31.0858 6.91436 30.4308 7.07784ZM19.6293 7.26869C19.6253 7.5784 19.836 8.2417 19.9383 8.2417C20.0358 8.2417 20.0283 8.19731 19.819 7.56434C19.6585 7.07809 19.6323 7.03691 19.629 7.26845M26.0333 7.13776C25.5798 7.26105 25.2095 7.49431 24.9493 7.82005C24.6928 8.14183 24.6825 8.22074 24.9173 8.06909C25.2723 7.83977 25.899 7.71476 26.6968 7.71476C27.5128 7.71476 28.1188 7.56631 28.48 7.27757C28.6343 7.15428 28.6251 7.15033 28.197 7.15033C27.9535 7.15033 27.4453 7.12617 27.0673 7.09683C26.5955 7.05984 26.2718 7.07291 26.0333 7.13776ZM11.3442 7.43267C10.7502 7.93668 11.2592 9.31531 12.2772 9.95962C12.732 10.2474 12.799 10.2577 12.6375 10.0144C12.4385 9.71502 12.2977 9.15725 12.22 8.36006C12.1612 7.75815 12.1147 7.57864 11.9805 7.43785C11.7715 7.21839 11.5985 7.21666 11.3442 7.43267ZM4.45246 7.72955C4.22121 8.33934 4.14596 8.67395 4.09196 9.33331C3.96146 10.9245 4.72822 12.313 5.94197 12.6826C6.44572 12.8362 6.84047 12.8624 7.18497 12.7647C7.34298 12.7203 7.30573 12.7013 6.96872 12.656C5.60322 12.472 4.70872 11.6115 4.43371 10.2175C4.32096 9.64474 4.37571 8.37362 4.53847 7.79021C4.68847 7.25168 4.64547 7.2211 4.45246 7.72955ZM5.74047 7.53673C5.55147 7.77344 5.53297 8.2057 5.69497 8.58839C5.86372 8.98612 6.09622 8.92004 6.36447 8.39778C6.47997 8.1729 6.57447 7.89575 6.57447 7.78207C6.57447 7.33231 6.03097 7.17253 5.74047 7.53673ZM14.0175 8.08956C13.794 8.33318 13.9057 8.74867 14.285 9.085C14.556 9.32493 15.8175 9.89896 16.0725 9.89822C16.1125 9.89822 16.0398 9.788 15.911 9.65337C15.7825 9.51874 15.5025 9.14961 15.2885 8.833C14.7043 7.96799 14.33 7.74903 14.0175 8.08956ZM12.9617 8.06465C12.8317 8.19288 12.9192 8.82659 13.1262 9.25884C13.5445 10.1303 14.4448 10.6244 15.2753 10.438L15.5425 10.3781L15.1788 10.3275C14.2362 10.1963 13.5812 9.56879 13.2895 8.51713C13.1685 8.08117 13.0752 7.95246 12.9617 8.06465ZM30.7998 8.27351C29.8541 8.48631 28.8651 9.14566 28.2165 9.99538C27.9833 10.3011 27.7923 10.565 27.792 10.5822C27.7918 10.5993 28.0785 10.3421 28.4296 10.0109C29.1283 9.35082 29.8521 8.92103 30.5786 8.73412C31.8381 8.41061 33.5178 8.77357 34.9011 9.66792L35.3868 9.98182L34.9668 9.59493C33.7856 8.50603 32.1168 7.97712 30.7998 8.27351ZM19.821 8.55979C19.556 8.93311 19.7365 9.55646 20.2395 10.0047C20.542 10.2743 21.8195 10.921 21.8975 10.8441C21.9218 10.8202 21.8698 10.7245 21.7818 10.6316C21.6938 10.5386 21.4293 10.1073 21.1938 9.6731C20.552 8.49 20.1195 8.13937 19.821 8.55979ZM25.7023 8.57458C25.3228 8.71291 24.8603 9.15898 24.6438 9.59468C24.5105 9.86296 24.4753 10.0637 24.478 10.5379C24.482 11.2478 24.6925 11.7865 25.1695 12.3093C25.4945 12.6656 26.1628 13.2103 26.2745 13.2103C26.3135 13.2103 26.1543 12.9815 25.92 12.7023C25.686 12.4227 25.3848 11.9744 25.2505 11.7062C25.0418 11.2887 25.0065 11.1373 25.0065 10.6523C25.0065 9.91795 25.2158 9.47016 25.7203 9.1247C26.0405 8.90525 26.129 8.88157 26.6283 8.88157C26.9325 8.88157 27.1815 8.85445 27.1818 8.82141C27.1818 8.72894 26.6825 8.54401 26.3218 8.50283C26.136 8.48187 25.873 8.51244 25.7023 8.57458ZM3.41296 9.06602C3.07171 10.5462 3.41146 11.984 4.31146 12.8693C4.84072 13.3896 5.30497 13.6011 5.99097 13.6349L6.53622 13.662L5.99122 13.485C5.29872 13.2606 5.01272 13.0843 4.54047 12.5909C3.80296 11.8208 3.46171 10.691 3.55171 9.31753C3.57971 8.89168 3.58696 8.54327 3.56821 8.54327C3.54921 8.54327 3.47921 8.7785 3.41296 9.06602ZM5.01697 9.20336C4.91372 10.5472 5.40597 11.4645 6.41997 11.8171C6.60197 11.8805 6.76772 11.9157 6.78822 11.8955C6.80897 11.8753 6.68522 11.7081 6.51372 11.5247C6.08822 11.0695 5.20047 9.18388 5.20047 8.7356C5.20047 8.67593 5.17047 8.6091 5.13397 8.58666C5.09747 8.56447 5.04472 8.84187 5.01697 9.20336ZM8.10498 8.64535C8.09298 8.83596 8.59948 9.6911 8.86373 9.92658C9.22373 10.2474 9.64123 10.3043 9.77873 10.0514C9.87173 9.87998 9.71523 9.7525 9.22198 9.59814C8.93098 9.5069 8.47323 9.12248 8.23548 8.76889C8.16598 8.66532 8.10698 8.60984 8.10498 8.64535ZM31.0871 9.11509C30.8638 9.2692 30.8963 9.52811 31.1546 9.64967C31.2966 9.71674 31.6238 9.72611 32.3756 9.68518L33.4023 9.62896L33.0971 9.49457C32.5661 9.26106 31.7046 8.99475 31.4786 8.99475C31.3591 8.99475 31.1828 9.049 31.0871 9.11509ZM7.53248 9.4275C7.55723 9.54118 7.68673 9.85335 7.81998 10.1211C8.09923 10.6809 8.45748 10.9718 8.82298 10.9366C9.19773 10.9003 9.16123 10.6885 8.73573 10.4331C8.17323 10.0952 7.87823 9.82894 7.71373 9.5106C7.53723 9.16958 7.46948 9.13826 7.53248 9.4275ZM25.6935 9.30372C25.4183 9.46054 25.277 9.70071 25.2778 10.0109C25.2795 10.7075 26.0253 10.9785 26.5408 10.47C26.8598 10.1554 26.8925 9.78628 26.6283 9.48348C26.4318 9.2581 25.9398 9.16366 25.6935 9.30372ZM29.9226 9.51307C29.4126 9.71033 28.9176 10.0691 28.5018 10.5443C28.0138 11.1018 27.9268 11.2729 28.2918 10.958C28.8031 10.5171 29.6913 9.98502 30.2796 9.76778C30.5898 9.65288 30.8441 9.51677 30.8446 9.46498C30.8458 9.3269 30.3366 9.35328 29.9226 9.51307ZM2.46996 9.97935C2.11146 11.8758 2.87996 13.6075 4.41071 14.3507C4.84572 14.562 5.01622 14.601 5.61222 14.6259C6.52722 14.6641 7.01722 14.494 7.51998 13.9638C7.94098 13.52 7.98723 13.3203 7.58923 13.665C6.24097 14.8328 4.05421 14.1732 3.10421 12.312C2.75571 11.6295 2.66896 11.2771 2.61221 10.312L2.56371 9.48397L2.46996 9.97935ZM9.57748 10.76C9.27523 10.8897 9.19173 11.123 9.35798 11.373C9.51423 11.6083 9.76573 11.7047 10.2232 11.7047C10.6457 11.7047 11.7645 11.5397 11.7645 11.4776C11.7645 11.4073 10.5322 10.8207 10.1997 10.7324C9.83198 10.635 9.87273 10.6333 9.57723 10.76M35.4248 10.9459C35.4248 11.0488 36.3991 11.9293 36.7563 12.1493C37.1958 12.4205 37.6208 12.4585 37.8173 12.2444C38.1003 11.936 37.8933 11.5483 37.3521 11.3743C36.8033 11.1979 35.4248 10.8914 35.4248 10.9459ZM25.8543 11.071C25.7188 11.4194 25.942 11.9764 26.4243 12.4922C26.6013 12.6819 26.7588 12.8246 26.7743 12.8094C26.7895 12.7941 26.7543 12.6663 26.696 12.5255C26.6375 12.3845 26.549 12.0346 26.4995 11.7476C26.45 11.4608 26.376 11.1644 26.335 11.089C26.2435 10.9205 25.9175 10.9082 25.8543 11.071ZM32.0286 11.3969C31.8048 11.447 31.8071 11.4495 32.1303 11.503C32.6741 11.5932 33.1401 11.882 33.7618 12.5139C34.4951 13.2586 34.6801 13.4132 34.4606 13.0974C34.3743 12.9731 34.1898 12.6584 34.0506 12.3983C33.5736 11.5052 32.9433 11.193 32.0286 11.3969ZM1.54895 12.1372C1.6432 12.9248 1.76321 13.3356 1.95996 13.5449C2.17896 13.7782 2.40571 13.791 2.55646 13.5789C2.70971 13.3632 2.60896 13.1052 2.17771 12.6067C1.98871 12.3884 1.76671 12.079 1.6842 11.9194C1.6017 11.7597 1.5237 11.6292 1.51095 11.6292C1.49845 11.6292 1.51545 11.8578 1.54895 12.1372ZM30.8073 11.8901C30.5136 11.9946 30.2646 12.0802 30.2538 12.0805C30.2433 12.0805 30.2348 12.1061 30.2348 12.1372C30.2348 12.1682 30.3811 12.2023 30.5593 12.2124C30.7376 12.2227 31.1156 12.2856 31.3988 12.3524C31.9861 12.4905 32.2628 12.4521 32.3366 12.2222C32.4131 11.9848 32.1703 11.7954 31.7231 11.7439C31.4266 11.7098 31.2223 11.7424 30.8073 11.8901ZM38.0198 12.1495C38.0198 12.1973 38.1831 12.3039 38.3823 12.386C38.5818 12.4678 38.8738 12.6044 39.0311 12.6893C39.4348 12.9063 39.3866 12.8148 38.9106 12.4604C38.4948 12.1507 38.0198 11.9848 38.0198 12.1495ZM20.2098 12.4572C21.0448 13.6601 21.2923 14.8861 20.9615 16.1836C20.825 16.7184 20.4685 17.5057 20.254 17.7456C20.1893 17.8181 20.1675 17.8763 20.2055 17.8748C20.333 17.8704 21.0208 16.9415 21.2448 16.4718C21.3668 16.2161 21.5043 15.7819 21.5505 15.5064C21.7385 14.388 21.2173 13.0877 20.292 12.366L19.9745 12.1184L20.2098 12.4572ZM21.1055 12.6831C21.7973 13.738 21.9918 14.2987 21.9918 15.2369C21.9918 16.2583 21.6843 17.0742 20.926 18.0618C20.7148 18.3374 20.5418 18.5788 20.5418 18.5983C20.5418 18.71 20.975 18.3212 21.3378 17.8837C22.678 16.2679 22.691 14.2474 21.3698 12.8922C21.1565 12.6737 21.0378 12.5795 21.1055 12.6831ZM36.1556 12.6912C36.4446 13.0098 36.8993 13.2221 37.7771 13.4482C38.2676 13.5747 38.8061 13.7434 38.9738 13.8233L39.2793 13.9685L38.9786 13.7007C38.5628 13.3306 38.0111 13.0821 37.3143 12.9516C36.9893 12.8907 36.5626 12.7709 36.3661 12.6853L36.0091 12.5295L36.1558 12.6912M14.7618 13.0877C14.1075 13.252 13.3885 13.6475 12.8642 14.1313C12.3492 14.6064 12.2547 14.7963 12.6997 14.4612C13.1045 14.1569 14.0342 13.7658 14.6938 13.6226C15.4573 13.4566 16.508 13.4998 17.088 13.7207C17.3083 13.8045 17.4888 13.8457 17.4888 13.8119C17.4888 13.7047 17.0045 13.3422 16.6585 13.1906C16.2325 13.0039 15.2978 12.9531 14.7618 13.0877ZM1.0607 13.7372C0.871952 15.6692 2.18421 17.3736 3.94621 17.4853C4.55147 17.5235 5.09722 17.3876 5.42947 17.1161C5.56622 17.0044 5.58072 16.9731 5.48022 17.0052C5.13947 17.1137 4.49171 17.1363 4.02196 17.0557C3.31671 16.9346 2.75596 16.6723 2.29621 16.2479C1.63945 15.6423 1.3617 15.0515 1.2037 13.9254L1.10845 13.2478L1.0607 13.7372ZM36.4621 13.5807C36.7163 14.0104 37.2878 14.5157 37.9503 14.8964C38.3036 15.0993 38.7038 15.3467 38.8403 15.4463C39.1556 15.6756 39.1666 15.5424 38.8696 15.0882C38.5348 14.5759 38.2571 14.3606 37.5563 14.0704C37.2026 13.9239 36.7788 13.6983 36.6146 13.5691L36.3163 13.3343L36.4621 13.5809M9.38198 13.7017C9.26798 13.7639 9.08723 13.9616 8.98048 14.1414C8.79998 14.4454 8.37973 15.5439 8.44398 15.5439C8.45973 15.5439 8.82123 15.211 9.24723 14.8042C9.92623 14.1557 10.0185 14.0373 9.99623 13.8445C9.97623 13.6724 9.92898 13.6204 9.77998 13.6068C9.67498 13.5969 9.49598 13.6396 9.38198 13.7017ZM2.52946 13.8618C2.52946 14.0225 3.04096 14.5029 3.37596 14.6562C3.51896 14.7216 3.75596 14.7978 3.90296 14.8249C4.15221 14.8715 4.14246 14.8594 3.75971 14.6461C3.53396 14.5204 3.18346 14.2644 2.98071 14.0773C2.57321 13.7012 2.52921 13.6803 2.52921 13.8618M35.8176 14.0344C35.9163 14.2186 36.4973 14.8791 37.1083 15.5023C37.7193 16.1256 38.3246 16.7709 38.4533 16.9366C38.7238 17.2855 39.0883 17.9722 39.0883 18.1343C39.0883 18.1952 39.1168 18.2625 39.1516 18.2837C39.2616 18.3505 39.1011 17.4675 38.9333 17.0811C38.6663 16.4664 38.2278 15.9752 37.2733 15.2216C36.7741 14.8271 36.2018 14.3234 36.0016 14.1022L35.6378 13.6995L35.8176 14.0344ZM30.2958 13.9579C29.5538 14.1919 28.7223 14.7704 28.313 15.337L28.1435 15.572L28.5061 15.3257C29.0523 14.9553 29.9861 14.5167 30.5131 14.383C31.4406 14.148 32.2266 14.2669 32.9763 14.7554L33.3901 15.0251L33.1988 14.7763C33.0938 14.6395 32.8441 14.4178 32.6441 14.2837C31.9441 13.8139 31.1161 13.6993 30.2958 13.9579ZM11.997 14.5406C11.6405 15.2219 10.9732 15.9091 10.3345 16.2531L9.81823 16.5307L10.1837 16.4839C11.2127 16.3522 12.0127 15.6374 12.2255 14.6594C12.3605 14.0381 12.2815 13.9969 11.997 14.5406ZM2.25846 14.9783C2.66096 15.8766 3.14896 16.297 4.00146 16.4809C4.24296 16.5332 4.97147 16.4545 4.97147 16.3766C4.97147 16.3483 4.79822 16.2814 4.58597 16.2277C4.14096 16.1153 2.99946 15.4012 2.44096 14.8856L2.05896 14.5329L2.25846 14.9783ZM7.45223 14.7805C7.36823 14.8076 7.11272 14.9267 6.88472 15.0448C6.61359 15.1832 6.31843 15.2699 6.01472 15.3003L5.55972 15.341L5.84722 15.4865C6.45172 15.7925 7.33148 15.7294 7.79223 15.3472C8.06848 15.1178 8.08398 14.9913 7.85473 14.833C7.67173 14.7065 7.67748 14.7073 7.45223 14.7805ZM30.7948 14.8619C30.7041 14.9004 30.6088 14.9975 30.5831 15.0774C30.5486 15.1849 30.4118 15.248 30.0611 15.319C29.4966 15.4327 29.2701 15.5765 29.7768 15.499C29.9658 15.4704 30.2023 15.4169 30.3026 15.3804C30.4468 15.3279 30.5076 15.3459 30.5931 15.4667C30.6761 15.5836 30.7863 15.6191 31.0648 15.6191C31.4788 15.6191 32.2058 15.4293 32.3626 15.2803C32.6161 15.0397 31.2401 14.672 30.7951 14.8616M35.7918 15.3548C35.8833 15.469 36.4026 16.0324 36.9463 16.6067C37.9866 17.7057 38.4033 18.3498 38.5473 19.0821C38.6036 19.3694 38.6161 19.3866 38.6296 19.195C38.6858 18.387 38.4181 17.6788 37.8151 17.0417C37.3713 16.5729 35.5566 15.0596 35.7918 15.3548ZM14.4058 15.7609C14.3032 15.8006 14.416 15.8443 14.7938 15.9108C15.4563 16.0277 16.0038 16.2733 16.4118 16.637C16.7853 16.9697 16.8285 16.8409 16.494 16.3924C16.1673 15.954 15.6088 15.6929 15.0123 15.6995C14.7583 15.7027 14.4853 15.7301 14.4058 15.7609ZM39.0631 15.8198C38.9196 15.9614 39.0286 16.5053 39.3086 17.0439C39.4716 17.3575 39.6688 17.8154 39.7468 18.0613L39.8886 18.5086L39.9421 18.2119C39.9716 18.0487 39.9976 17.6071 39.9998 17.23C40.0063 16.209 39.8131 15.7698 39.3566 15.7698C39.2231 15.7698 39.0908 15.7922 39.0631 15.8198ZM13.4637 16.3909C13.138 16.7199 12.942 17.0892 13.056 17.1588C13.0915 17.1805 13.1655 17.0907 13.2207 16.9598C13.2757 16.8286 13.434 16.5751 13.5725 16.3961C13.711 16.2173 13.8142 16.0709 13.8025 16.0709C13.7905 16.0709 13.638 16.2149 13.4637 16.3909ZM34.8906 16.0977C34.8906 16.1116 35.1811 16.298 35.5361 16.512C36.3678 17.0131 36.9911 17.5866 37.3586 18.1885C37.5198 18.4523 37.6281 18.5833 37.5996 18.4797C37.4131 17.8026 36.8441 17.0885 36.1773 16.6952C35.7788 16.46 34.8906 16.0477 34.8906 16.0977ZM14.5245 16.4067C14.5523 16.4356 14.6895 16.5192 14.8298 16.5926C15.2055 16.7894 15.428 17.1536 15.428 17.5716C15.428 17.9227 15.386 18.0253 14.8698 18.9366C14.517 19.5595 14.403 20.1079 14.5158 20.6422C14.628 21.1753 14.7018 21.1877 14.7083 20.674C14.7148 20.1678 14.8958 19.7333 15.4448 18.9073C15.7633 18.4279 15.8425 18.243 15.8703 17.9133C15.889 17.6904 15.8828 17.4246 15.857 17.3223C15.7958 17.0814 15.4645 16.6952 15.209 16.5665C14.981 16.4516 14.4475 16.3273 14.5245 16.4067ZM13.907 17.0971C13.688 17.3721 13.7087 17.6236 13.972 17.8835C14.2235 18.1315 14.349 18.1515 14.6593 17.9932C14.9008 17.8699 14.97 17.7422 14.97 17.4197C14.97 16.9132 14.2325 16.6895 13.907 17.0974M29.8703 17.2421C29.6593 17.3876 29.6541 17.574 29.8553 17.7871C30.0938 18.0396 30.3378 18.0652 30.7291 17.8785C30.9191 17.7878 31.0743 17.6879 31.0743 17.6566C31.0743 17.5491 30.7791 17.3361 30.4881 17.234C30.1118 17.1016 30.0728 17.1021 29.8703 17.2421ZM28.7811 17.3025C28.3143 17.4266 27.96 17.6527 27.5435 18.0923C27.236 18.4161 26.8765 18.9766 26.8765 19.1314C26.8765 19.162 26.9815 19.0464 27.1098 18.8745C27.3553 18.5448 28.1 17.9547 28.5538 17.7304C28.7018 17.6569 29.0031 17.5553 29.2236 17.504C29.6533 17.4041 29.7281 17.3203 29.4526 17.2475C29.2318 17.1894 29.1963 17.1921 28.7811 17.3025ZM1.99671 17.3506C1.99646 17.5227 2.33571 18.2028 2.48071 18.3212C2.68221 18.4854 2.71521 18.3611 2.53621 18.113C2.41168 17.9345 2.2945 17.751 2.18496 17.5632C2.08146 17.3844 1.99646 17.2887 1.99646 17.3511M11.769 17.557C11.4425 17.9478 11.2757 18.4089 11.3395 18.7445C11.402 19.0725 11.6235 19.3082 11.8697 19.3082C12.0947 19.3082 12.15 19.1339 12.0637 18.694C11.9762 18.2472 11.978 17.7013 12.0675 17.4685C12.175 17.1903 12.0427 17.2293 11.769 17.557ZM12.6462 17.5183C12.4955 17.7304 12.4935 18.2543 12.642 18.6047C12.7865 18.9457 13.4035 19.8038 13.542 19.8564C13.6295 19.8897 13.63 19.8349 13.5445 19.5102C13.489 19.2981 13.4432 18.8432 13.4432 18.4989C13.4432 17.6852 13.3122 17.3509 12.9935 17.3509C12.844 17.3509 12.724 17.4086 12.6462 17.5183ZM32.1428 17.8369C32.2478 17.9488 32.5223 18.3485 32.7533 18.7253C32.9841 19.1021 33.2633 19.4756 33.3738 19.5553C33.7431 19.8223 34.0668 19.5306 33.9426 19.0429C33.8336 18.6143 32.8946 17.9081 32.1426 17.6889L31.9518 17.6334L32.1428 17.8369ZM5.88722 17.8788C5.19847 17.9718 4.62547 18.2713 4.35071 18.6824C4.18271 18.9334 4.16246 19.3501 4.31546 19.4081C4.43621 19.4537 4.55197 19.3422 4.93072 18.8168C5.23197 18.3988 5.71197 18.0536 6.08772 17.9841C6.23022 17.9577 6.36572 17.9059 6.38872 17.8694C6.41172 17.8324 6.40272 17.807 6.36872 17.8125C6.33472 17.8179 6.11822 17.8475 5.88722 17.8788ZM34.2671 18.5554C34.7626 19.4695 34.9283 20.1069 34.9231 21.0772C34.9198 21.6549 34.8806 22.0019 34.7931 22.2253C34.6268 22.6509 34.6908 22.6316 34.9181 22.1875C35.3176 21.4083 35.3588 20.4247 35.0291 19.5491C34.8396 19.0454 34.4621 18.4444 34.1691 18.1789C33.9753 18.0038 33.9821 18.0299 34.2671 18.5554ZM6.84147 18.2874C6.18222 18.4962 5.56322 18.8017 5.35647 19.0205C5.20047 19.1857 5.15972 19.4165 5.24697 19.6406C5.30997 19.8026 5.71947 19.7935 5.98022 19.6238C6.25872 19.4426 7.57323 18.1015 7.46298 18.1108C7.41498 18.115 7.13547 18.1947 6.84147 18.2874ZM28.6713 18.2144C28.3665 18.3239 28.174 18.5029 28.174 18.6762C28.174 19.0565 28.4981 19.2056 28.9586 19.0375C29.1358 18.9726 29.5041 18.8397 29.7768 18.7416C30.0498 18.6439 30.2293 18.5621 30.1761 18.5596C30.1226 18.5571 29.9511 18.4726 29.7943 18.372C29.4201 18.131 29.0483 18.079 28.6713 18.2144ZM8.32998 18.2309C8.18673 18.2815 8.02448 18.4785 8.02448 18.6018C8.02448 18.9403 8.61773 19.0165 9.73048 18.821C10.411 18.7014 10.5017 18.6565 10.1897 18.5936C10.0692 18.5695 9.67223 18.4664 9.30723 18.3643C8.62723 18.1744 8.52873 18.1609 8.32973 18.2312M30.8563 18.2977C30.4128 18.4817 30.5788 18.9398 31.1351 19.0678C31.2906 19.1038 31.6411 19.1862 31.9141 19.251C32.1868 19.3159 32.4236 19.3561 32.4401 19.34C32.5076 19.2754 32.0821 18.767 31.7613 18.5295C31.3368 18.2154 31.1626 18.1707 30.8563 18.2977ZM2.65796 18.6587C2.60096 18.8052 2.73446 19.3432 2.91371 19.6897C3.18021 20.205 3.69096 20.1814 3.73621 19.6522C3.76546 19.3112 3.62496 19.0816 3.20196 18.7793C2.85621 18.5325 2.71896 18.5019 2.65796 18.6587ZM35.4231 19.0069C35.7611 19.7397 35.9088 20.3892 35.9106 21.1521C35.9136 22.2521 35.5706 22.9571 34.6658 23.7112C34.4178 23.9178 34.2256 24.0971 34.2383 24.1096C34.2508 24.1222 34.4888 24.0428 34.7668 23.9331C36.0536 23.4251 36.7326 22.0837 36.4238 20.66C36.3038 20.1079 35.8546 19.2281 35.4923 18.8365L35.1973 18.5174L35.4228 19.0069M20.0853 18.7793C19.9085 18.9539 19.81 19.1684 19.6638 19.6966L19.5668 20.048L20.035 19.5543C20.3595 19.2121 20.5035 19.0002 20.5035 18.8651C20.5035 18.6126 20.297 18.5702 20.0853 18.7793ZM7.65473 18.8577C7.55648 18.9386 7.34573 19.0394 7.18672 19.0816C6.87272 19.165 6.68497 19.3307 6.76322 19.4552C6.91472 19.6971 7.52723 19.3706 7.76223 18.9226C7.89573 18.6678 7.88998 18.6644 7.65473 18.8577ZM27.6008 19.0303C27.3608 19.267 27.1373 19.8179 27.2035 20.0097C27.2203 20.0586 27.3048 19.9629 27.391 19.7972C27.4775 19.6315 27.6548 19.3644 27.785 19.2034C28.1715 18.7251 28.0378 18.5995 27.6008 19.0303ZM0.472451 18.8626C0.460701 19.0032 0.831702 19.9555 1.08845 20.444C1.68345 21.5758 2.59846 22.4684 3.71246 23.003C4.55947 23.4093 5.31697 23.5501 6.41872 23.506C7.34948 23.4685 7.89648 23.3216 8.50173 22.9463C8.82073 22.749 8.88873 22.5739 8.61623 22.6523C7.40248 23.0008 7.28172 23.0197 6.23122 23.0254C5.34022 23.0303 5.06372 23.0032 4.56747 22.8627C2.82271 22.3685 1.70095 21.3679 0.807452 19.5084C0.624951 19.129 0.474201 18.8385 0.472451 18.8626ZM10.7687 19.3501C10.625 19.5208 10.765 19.8532 11.0172 19.9405C11.4155 20.0785 11.64 19.5918 11.2897 19.3499C11.074 19.2007 10.8942 19.201 10.7687 19.3501ZM28.6663 19.45C28.2898 19.6184 27.8193 20.1424 27.7165 20.5076C27.675 20.655 27.641 20.9115 27.6413 21.0772L27.6415 21.378L27.822 21.0017C28.1803 20.2541 28.9303 19.8285 29.9856 19.7735C30.6703 19.738 30.7113 19.6783 30.2066 19.4522C29.7926 19.2668 29.0773 19.2658 28.6663 19.4498M8.25373 19.4604C7.52673 19.5444 7.15897 19.6596 6.96372 19.8648C6.82297 20.0127 6.80622 20.0748 6.87322 20.1991C7.05822 20.5401 7.39898 20.4847 8.43223 19.9454C8.77473 19.7666 9.19248 19.5945 9.36048 19.5632C9.64048 19.5112 9.64998 19.502 9.47498 19.4522C9.23623 19.3847 8.88923 19.3869 8.25373 19.4604ZM11.9172 19.5541C11.9172 19.7272 12.3837 20.2124 12.7072 20.3759C12.9235 20.4854 13.2055 20.5446 13.5965 20.5628C14.229 20.5924 14.2512 20.6171 13.2537 20.1811C12.9602 20.0529 12.5735 19.8376 12.3942 19.7032C12.0457 19.4411 11.9172 19.4009 11.9172 19.5541ZM32.5248 19.5698C32.5248 19.6833 32.8758 19.8149 32.9591 19.7326C33.0341 19.6586 32.8221 19.4584 32.6681 19.4584C32.5893 19.4584 32.5248 19.5087 32.5248 19.5698ZM36.6736 19.9511C37.3761 21.3674 37.2113 22.6228 36.2043 23.5304C35.7098 23.9762 35.7828 24.0053 36.3893 23.6039C37.1338 23.1115 37.5406 22.3407 37.4611 21.5743C37.4171 21.1484 36.9698 20.1602 36.6403 19.7595C36.5093 19.6004 36.5146 19.6303 36.6736 19.9511ZM26.421 19.9528C26.4618 20.0588 26.4953 20.3638 26.4953 20.6301C26.4953 21.016 26.5268 21.1455 26.6495 21.2668C26.7698 21.3854 26.8363 21.4022 26.9495 21.3423C27.2935 21.1608 27.2313 20.6824 26.7925 20.1348C26.4615 19.722 26.3018 19.6436 26.421 19.9528ZM30.8838 19.8098C30.6513 19.8704 30.5813 19.9656 30.6818 20.0852C30.7436 20.1582 31.0076 20.2026 31.5323 20.2275C32.1793 20.258 32.3621 20.297 32.7523 20.4881C33.0048 20.6114 33.2118 20.6849 33.2118 20.6508C33.2118 20.5372 32.4906 20.0657 32.1433 19.9523C31.7496 19.8241 31.1081 19.7513 30.8838 19.8098ZM33.6648 19.9903C33.4808 20.1717 33.5056 20.3732 33.7908 21.0091C33.8908 21.232 34.0141 21.5755 34.0648 21.7725L34.1573 22.1308L34.2563 21.7967C34.5088 20.944 34.4496 20.08 34.1263 19.9096C33.9221 19.8016 33.8418 19.8159 33.6648 19.9903ZM4.41246 20.1074C4.47646 20.2038 4.71572 20.3727 4.94397 20.4829C5.28947 20.6499 5.42372 20.6758 5.74522 20.6383C6.15572 20.5902 6.57747 20.3914 6.63597 20.2179C6.66372 20.1357 6.61572 20.1244 6.41322 20.1653C5.64947 20.3202 5.24097 20.3083 4.76447 20.1185L4.29596 19.9321L4.41246 20.1074ZM38.7071 20.1828C38.7071 20.2223 38.8088 20.5754 38.9331 20.967C39.1716 21.7188 39.5113 22.3301 39.7646 22.4637C39.8796 22.5244 39.7758 22.2541 39.3416 21.359C38.7508 20.1409 38.7071 20.0595 38.7071 20.1828ZM3.52171 20.2788C3.52171 20.4109 4.05671 20.8064 4.34021 20.8844C4.81147 21.0133 4.88147 20.9712 4.50097 20.787C4.30471 20.692 4.02371 20.5239 3.87621 20.4129C3.58996 20.1974 3.52171 20.1717 3.52171 20.2788ZM29.1283 20.5458C28.7628 20.7206 28.309 21.034 28.4166 21.0377C28.4448 21.0385 28.7253 20.9376 29.0401 20.8133C29.3546 20.6893 29.6748 20.5862 29.7518 20.5843C29.8286 20.5823 29.9946 20.5345 30.1206 20.4775C30.3483 20.3747 30.3476 20.3739 29.9298 20.3688C29.6328 20.3648 29.3983 20.4166 29.1283 20.5458ZM25.4713 20.9334C25.3505 21.1938 25.0668 21.5671 24.728 21.9121C24.4265 22.2186 24.205 22.494 24.2355 22.5244C24.3303 22.6178 25.2713 22.0867 25.4728 21.8261C25.6183 21.6379 25.674 21.4537 25.7088 21.0461C25.7338 20.7527 25.7345 20.5123 25.7105 20.5123C25.6865 20.5123 25.5788 20.7019 25.4713 20.9334ZM0.018449 21.2569C0.108949 22.295 0.631701 23.3004 1.50895 24.1244C2.49096 25.0466 3.57396 25.4806 4.89147 25.4806C6.42022 25.4806 7.84398 24.7517 8.44273 23.6621L8.66373 23.2602L8.40123 23.5267C7.04372 24.9071 5.33622 25.3253 3.50746 24.7253C2.42521 24.3703 1.3337 23.5161 0.748702 22.566C0.466451 22.1081 0.0869492 21.1408 0.0869492 20.8802C0.0869492 20.8069 0.0599491 20.7307 0.027449 20.7108C-0.0053011 20.691 -0.00930112 20.9366 0.018449 21.2569ZM0.735702 21.0395C0.768202 21.143 0.936202 21.5154 1.1087 21.8675C1.5087 22.6837 2.15021 23.3731 2.50871 23.3731C2.68096 23.3731 2.76146 23.3307 2.79621 23.2227C2.87946 22.9643 2.76196 22.7781 2.31371 22.4573C1.75821 22.0603 1.36745 21.6988 0.983202 21.2276C0.764702 20.9596 0.693201 20.9053 0.735702 21.0395ZM26.1835 21.8916C25.9161 22.1359 25.6429 22.3739 25.364 22.6055C25.011 22.8947 24.9685 22.9613 24.9685 23.2239C24.9685 23.4402 25.0085 23.5395 25.1195 23.598C25.5995 23.8515 26.172 23.1951 26.53 21.9797C26.5998 21.7434 26.6455 21.5393 26.632 21.526C26.6185 21.5126 26.417 21.6771 26.1835 21.8916ZM3.13971 21.7536C3.13971 21.8263 4.02971 22.2302 4.51372 22.3767C5.25297 22.6008 5.84797 22.6459 6.58072 22.534L7.22322 22.4358L6.26922 22.3828C5.36522 22.3328 3.78246 22.0105 3.36896 21.7923C3.21221 21.7097 3.13971 21.6973 3.13971 21.7536ZM9.34723 22.0842C8.89898 22.2911 8.75473 22.5766 8.98398 22.803C9.15323 22.9699 9.48523 22.9502 9.99223 22.7428C10.2322 22.6445 10.6177 22.5202 10.8485 22.4664L11.2685 22.3685L10.8485 22.1794C10.291 21.9279 9.75923 21.8944 9.34723 22.0842ZM31.0851 22.2001C31.5256 22.4349 31.9286 22.8923 32.2336 23.503C32.4323 23.9013 32.4623 24.0342 32.4326 24.3878C32.3981 24.7973 32.4001 24.802 32.5481 24.6718C32.6311 24.5993 32.7618 24.4043 32.8391 24.2388C33.3016 23.2446 32.4671 22.174 31.1316 22.0485L30.7311 22.011L31.0851 22.1999M38.5156 22.3989C38.4421 22.5414 38.2638 22.8176 38.1201 23.0128C37.7906 23.4592 37.6993 23.7592 37.8033 24.0532C37.9726 24.5318 38.5428 24.4073 38.8403 23.8268C39.0833 23.3526 39.0458 22.6745 38.7553 22.2825C38.6551 22.1473 38.6423 22.1535 38.5156 22.3989ZM30.4986 22.6546C30.2678 22.8822 30.2491 23.2809 30.4571 23.5341C30.5728 23.6749 30.6771 23.7116 30.9598 23.7116C31.3968 23.7116 31.6086 23.5045 31.6086 23.0767C31.6086 22.5125 30.9111 22.2475 30.4986 22.6546ZM23.399 22.6861C22.871 23.0037 22.107 24.1192 22.2925 24.3017C22.3603 24.3683 22.5213 24.3173 22.9658 24.0882C23.6475 23.7368 24.2053 23.2493 24.2053 23.0047C24.2053 22.5532 23.852 22.4137 23.399 22.6861ZM29.4853 22.9591C29.3603 23.0627 29.1478 23.3171 29.0131 23.5245C28.8763 23.7346 28.6281 23.9839 28.4518 24.0882C27.9818 24.3661 28.316 24.3155 28.8863 24.0223C29.8181 23.5432 30.1651 23.1637 29.9288 22.8826C29.8013 22.7312 29.7493 22.7401 29.4853 22.9591ZM2.71696 23.453C2.64146 23.5738 2.86996 23.7824 3.35396 24.0349C4.02446 24.3851 4.52972 24.5034 5.30997 24.4931L6.00197 24.4837L5.50897 24.4142C4.82772 24.318 3.96346 24.0209 3.34296 23.669C2.75396 23.3349 2.78446 23.3455 2.71696 23.453ZM24.4558 23.8248C23.6368 24.1118 22.9993 24.5054 22.5075 25.0272C22.245 25.3058 21.947 25.6828 21.8455 25.865L21.6613 26.1959L22.0648 25.7615C22.5653 25.2224 23.5103 24.5222 24.3388 24.0761C25.1538 23.6377 25.1855 23.5691 24.4558 23.8248ZM36.5703 24.0672C36.1703 24.2674 35.9896 24.5377 36.0628 24.8262C36.1278 25.0799 36.4398 25.1726 36.7153 25.02C37.0061 24.859 37.2678 24.4339 37.2411 24.1659C37.2116 23.8697 37.0211 23.8416 36.5703 24.0672ZM35.0073 24.1545C34.8006 24.3582 34.7736 24.4733 34.8898 24.6526C34.9548 24.7532 34.9858 24.7532 35.1673 24.6526C35.4523 24.4953 35.5596 24.3091 35.4573 24.1491C35.3288 23.9484 35.2148 23.9496 35.0073 24.1545ZM0.465701 24.4225C0.823702 24.8454 1.17895 25.1036 1.40345 25.1041C1.63195 25.1046 1.5502 24.9199 1.25295 24.7638C1.09695 24.6822 0.830452 24.512 0.661451 24.386C0.142449 23.9992 0.112449 24.0048 0.465701 24.4225ZM11.988 24.3042C11.5262 24.4267 10.99 24.7431 10.7335 25.0437C10.4702 25.3521 10.5815 25.3899 11.0557 25.1529C12.2975 24.5323 13.8352 24.585 15.1228 25.2922L15.4663 25.4809L15.1473 25.1931C14.2652 24.3974 12.9882 24.0384 11.988 24.3042ZM29.8703 24.4689C29.6291 24.6353 29.6488 24.9241 29.9103 25.0558C30.1396 25.1707 32.2411 25.2755 32.1741 25.1684C32.0971 25.0459 31.1758 24.5865 30.7743 24.4711C30.2553 24.3214 30.0841 24.3214 29.8703 24.4689ZM22.1613 24.4775C22.0723 24.5128 21.6448 25.255 21.7133 25.255C21.7385 25.255 22.0545 24.8185 22.2438 24.5227C22.3093 24.4198 22.3083 24.4191 22.1613 24.4775ZM28.4476 24.4921C28.4061 24.5584 29.4038 24.6679 29.4693 24.604C29.4893 24.585 29.4548 24.5377 29.3931 24.4992C29.2511 24.4107 28.5021 24.4053 28.4476 24.4921ZM37.7261 24.5559C37.7198 24.6062 37.5086 24.8644 37.2566 25.1302C37.0048 25.3958 36.7988 25.634 36.7988 25.6599C36.7988 25.6855 36.9143 25.7067 37.0556 25.7067C37.5513 25.7067 37.8583 25.2673 37.7706 24.6834C37.7523 24.5631 37.7323 24.5059 37.7261 24.5559ZM34.0468 24.8504C33.8692 25.0293 33.6793 25.1961 33.4786 25.3494C33.1793 25.5714 33.1778 25.5748 33.4023 25.524C34.0366 25.3803 34.5851 24.9569 34.4816 24.6911C34.4156 24.5209 34.3366 24.5503 34.0468 24.8504ZM7.83373 25.0686C7.70773 25.1265 7.24197 25.3393 6.79872 25.5413C6.12772 25.847 5.97597 25.9479 5.89472 26.141C5.76747 26.444 5.83972 26.6477 6.11447 26.7599C6.59447 26.9559 7.23447 26.4714 7.89123 25.4148C8.19573 24.9251 8.19223 24.9041 7.83373 25.0686ZM11.6182 25.2338C11.1495 25.397 10.6757 25.8882 10.474 26.4203C10.274 26.9478 10.3055 27.1411 10.5235 26.7229C10.7572 26.2741 11.253 25.7543 11.7752 25.4103C12.2582 25.0923 12.2027 25.0301 11.6182 25.2338ZM1.99796 25.381C2.11546 25.7136 2.62796 26.3375 2.84546 26.4129C3.09846 26.5007 3.44521 26.4152 3.44521 26.265C3.44521 26.0135 3.26146 25.8433 2.65971 25.5373C2.43316 25.4214 2.20591 25.3068 1.97796 25.1936C1.94746 25.1798 1.95646 25.2641 1.99796 25.381ZM34.8071 25.3312C34.2121 25.4306 33.9196 25.7269 34.0213 26.1271C34.1121 26.4832 34.6708 26.5732 35.1851 26.3146C35.5026 26.1545 36.0356 25.6148 36.0356 25.4528C36.0356 25.2772 35.4676 25.221 34.8071 25.3312ZM12.642 25.51C12.334 25.6424 12.199 25.8167 12.2595 26.0041C12.327 26.2147 12.642 26.2046 13.394 25.9676C13.7237 25.864 14.164 25.7753 14.3725 25.7703C14.8233 25.7605 14.776 25.6882 14.212 25.5252C13.7145 25.3817 12.958 25.3741 12.642 25.51ZM9.76248 25.8581C9.52623 26.066 9.26173 26.3493 9.17498 26.4881C9.01398 26.7451 8.96323 27.0614 9.08273 27.0614C9.24173 27.0614 9.57173 26.715 9.75273 26.3577C9.86123 26.1444 10.0335 25.8599 10.136 25.7252C10.4052 25.3714 10.256 25.4242 9.76248 25.8581ZM3.75046 25.813C3.75046 25.9057 4.69597 26.448 4.93422 26.4921C5.22172 26.5451 5.65847 26.4872 5.65847 26.3959C5.65847 26.3676 5.35097 26.2719 4.97547 26.1834C4.59997 26.0948 4.18246 25.9684 4.04796 25.9023C3.78846 25.7743 3.75046 25.7629 3.75046 25.813ZM32.8298 26.0004C33.0108 26.1003 33.5088 26.1705 33.6728 26.1195C33.9898 26.0201 33.7981 25.9324 33.2688 25.9346C32.9283 25.9361 32.7593 25.9614 32.8298 26.0004ZM1.6217 26.0828C1.6072 26.372 1.85371 27.2385 2.07121 27.6633C2.60871 28.714 3.52271 29.3352 4.60222 29.384C5.44997 29.4222 5.88047 29.2634 6.44947 28.7024C6.69647 28.4588 6.87672 28.2379 6.85022 28.2117C6.82347 28.1854 6.70772 28.2527 6.59272 28.3612C6.31147 28.6267 5.63172 28.9189 5.15347 28.9801C3.65246 29.1724 2.33146 28.1614 1.76021 26.3838C1.6872 26.1562 1.6247 26.0204 1.6217 26.0828ZM32.1431 26.302C33.3858 27.3593 35.3511 27.5075 36.4171 26.6243C36.5866 26.4837 36.5526 26.4886 36.1118 26.6694C35.6778 26.8474 35.5153 26.8726 34.8143 26.8703C34.1136 26.8681 33.9168 26.8363 33.2496 26.6171C32.8298 26.479 32.3491 26.3005 32.1811 26.2206L31.8758 26.0749L32.1431 26.302ZM11.4592 26.2864C11.0892 26.4198 10.8857 26.8422 11.0927 27.0464C11.4052 27.3546 12.2055 26.7663 12.0427 26.3476C11.9987 26.2349 11.6917 26.2029 11.4592 26.2864ZM3.71096 26.5523C3.79446 26.6045 4.01496 26.8087 4.20121 27.006C4.57172 27.398 5.03872 27.5884 5.63047 27.5884C6.03872 27.5884 6.67072 27.4577 6.83397 27.3393C6.93397 27.2671 6.84297 27.2481 6.36547 27.2422C5.89172 27.2365 5.65697 27.1887 5.19422 27.0035C4.87597 26.876 4.48097 26.7478 4.31671 26.7184C4.15221 26.6889 3.91446 26.6181 3.78846 26.5611C3.64746 26.497 3.61771 26.4936 3.71096 26.5523ZM3.00021 27.1179C3.72121 28.1516 4.49622 28.5377 5.53972 28.3834C5.99472 28.316 5.98172 28.2223 5.50922 28.1605C5.05572 28.1013 3.94671 27.5682 3.30021 27.0989C3.04396 26.9128 2.81521 26.7604 2.79271 26.7604C2.76946 26.7604 2.86296 26.9214 3.00021 27.1179ZM26.9528 27.057C27.2528 27.2994 27.8785 27.5884 28.1035 27.5884C28.5001 27.5884 28.5961 27.205 28.2335 27.0696C28.1378 27.0338 27.7678 26.9818 27.411 26.9537L26.762 26.9026L26.9528 27.057ZM9.50673 27.1334C9.41923 27.169 9.25248 27.3095 9.13623 27.4459C8.85323 27.7775 8.89598 28.2053 9.24223 28.5106C9.59223 28.8191 10.0165 28.8006 10.36 28.4618C10.527 28.2971 10.6195 28.1333 10.6195 28.0026C10.6195 27.7452 10.409 27.3019 10.247 27.2185C10.0335 27.108 9.67198 27.0664 9.50673 27.1334ZM38.5813 27.511C38.0528 27.8098 37.7678 28.1725 37.5221 28.8588C37.4091 29.1744 37.2818 29.4752 37.2391 29.527C37.1866 29.5909 37.1871 29.6209 37.2416 29.6209C37.3728 29.6209 37.8528 29.0205 38.2116 28.4068C38.3971 28.0899 38.6656 27.7085 38.8086 27.559C39.1231 27.2301 39.0901 27.2234 38.5813 27.511ZM14.6648 27.4145C12.6365 27.7494 11.2315 29.5793 11.2072 31.9171C11.1965 32.9444 11.3987 33.4496 12.0167 33.9403C12.2652 34.1376 12.3842 34.1753 12.838 34.2004C13.2947 34.2261 13.4265 34.2022 13.7855 34.0288C14.4527 33.707 14.854 33.1737 15.2473 32.0858C15.5605 31.2195 15.8758 30.7002 16.3535 30.264C16.8613 29.8005 17.4523 29.5457 18.0205 29.5457H18.394L18.3265 29.3135C18.1498 28.7064 17.459 27.9218 16.8928 27.6853C16.2103 27.4002 15.3698 27.2982 14.6648 27.4145ZM28.5978 27.5045C28.6796 27.58 29.4716 27.8157 29.4716 27.7647C29.4716 27.7464 29.3256 27.6661 29.1473 27.5864C28.8111 27.436 28.4673 27.3847 28.5978 27.5045ZM30.3983 28.0123C31.0126 28.8827 31.6086 29.1157 31.6086 28.4857C31.6086 28.2095 31.3816 27.9977 30.8073 27.7386C29.9351 27.3453 29.9298 27.349 30.3983 28.0123ZM10.8932 28.3503C10.2557 29.4155 9.21498 29.7021 8.49773 29.0104C8.36348 28.881 8.25348 28.8173 8.25348 28.8691C8.25348 29.0634 8.57048 29.4584 8.81973 29.5753C9.57723 29.9299 10.4092 29.4836 10.958 28.4282C11.1252 28.1067 11.0755 28.0465 10.8932 28.3503ZM14.1385 28.3851C13.533 28.5456 13.018 28.8496 12.6162 29.2836C12.2367 29.6934 11.8912 30.3193 11.8062 30.7503C11.758 30.9956 11.7712 30.9853 12.0002 30.5996C12.5052 29.7489 13.5015 29.0082 14.4773 28.7577C15.0418 28.6124 16.1013 28.6105 16.6455 28.7535C16.8745 28.8134 17.073 28.8521 17.086 28.8388C17.0995 28.8257 16.912 28.7278 16.6698 28.6216C15.8665 28.2689 14.9123 28.1799 14.1385 28.3851ZM29.2426 28.2936C29.2426 28.3905 29.6711 28.9678 29.9028 29.1833C30.2858 29.5393 30.8886 29.652 31.3556 29.455L31.5706 29.3645L31.3033 29.3389C30.6416 29.2752 30.0673 29.0047 29.5288 28.5022C29.3713 28.3555 29.2426 28.2615 29.2426 28.2936ZM31.7196 28.8738C31.6918 28.9182 31.7471 29.0368 31.8431 29.1372C31.9688 29.2693 32.0983 29.3199 32.3113 29.3199C32.5976 29.3199 33.1941 29.127 33.1236 29.0575C33.0821 29.0163 32.0273 28.7929 31.8753 28.7929C31.8178 28.7929 31.7476 28.8292 31.7196 28.8738ZM24.358 29.0637C24.0855 29.1672 23.8345 29.2789 23.8008 29.3122C23.767 29.3455 23.9588 29.3929 24.2268 29.4175C24.4948 29.4422 24.9448 29.5196 25.2268 29.5896C25.7923 29.7297 26.0343 29.6816 26.188 29.3983C26.2575 29.2701 26.2395 29.2116 26.0815 29.0558C25.915 28.8916 25.8265 28.8686 25.3725 28.8718C25.01 28.8743 24.705 28.932 24.358 29.0637ZM27.299 29.4417C27.4155 29.6853 27.5128 30.0823 27.5633 30.5222C27.6483 31.2612 27.709 31.4365 27.935 31.5933C28.0125 31.6471 28.1323 31.8774 28.2008 32.1052C28.3556 32.6194 28.5133 32.8704 28.4373 32.4815C28.3996 32.3059 28.3472 32.1337 28.2808 31.9667C28.2018 31.7768 28.1968 31.6769 28.2608 31.5593C28.4816 31.1525 28.0875 30.1042 27.4595 29.4276L27.1148 29.0563L27.299 29.4417ZM34.1916 29.2254C33.4291 29.2508 33.2373 29.3285 33.3328 29.5738C33.3611 29.6461 33.4671 29.6962 33.5921 29.6962C33.8156 29.6962 34.8013 29.3583 34.9251 29.239C34.9648 29.2008 34.9821 29.1764 34.9631 29.185C34.9441 29.1936 34.5968 29.2119 34.1916 29.2254ZM14.7963 29.398C14.3815 29.4668 13.7895 29.7815 13.6737 29.9948C13.5075 30.3015 13.6152 30.2926 14.0867 29.9607C14.3567 29.7709 14.7603 29.5514 14.9838 29.4732C15.4195 29.3204 15.374 29.3024 14.7963 29.398ZM34.5733 29.7627C33.7601 30.1548 33.5933 30.2665 33.5933 30.4206C33.5933 30.5915 33.9301 30.539 34.2581 30.3173C34.5568 30.1153 35.4206 29.3889 35.3473 29.4012C35.3271 29.4047 34.9788 29.5674 34.5733 29.7627ZM15.428 29.7817C14.6 29.9154 13.8252 30.4647 13.8252 30.9182C13.8252 31.115 14.1017 31.3579 14.2622 31.3021C14.3367 31.2762 14.7068 30.9461 15.0848 30.5681C15.4623 30.1903 15.8403 29.8414 15.924 29.7931C16.1065 29.688 16.0203 29.686 15.428 29.7817ZM23.8213 29.8964C24.0088 29.9612 24.359 30.1459 24.5995 30.3069C25.0488 30.6078 25.3053 30.6729 25.3715 30.5025C25.4933 30.1893 24.5283 29.7632 23.7245 29.7751C23.4885 29.7785 23.492 29.7829 23.8213 29.8964ZM30.2348 29.8476C30.2348 29.9748 30.8833 30.2914 31.1513 30.2948C32.5568 30.3128 32.9263 30.2924 33.1371 30.1846C33.4081 30.0465 33.4253 29.9558 33.1923 29.8942C32.7476 29.7768 31.8813 29.9065 31.7156 30.1151C31.6436 30.2058 31.5706 30.2051 31.2001 30.1102C30.9626 30.049 30.6483 29.9499 30.5016 29.8892C30.3548 29.8286 30.2348 29.8098 30.2348 29.8473M26.1448 30.0354C26.0843 30.2722 26.2773 30.5789 26.5503 30.6815C26.829 30.7858 26.9873 30.6243 26.9165 30.3069C26.8195 29.8705 26.2385 29.6661 26.1445 30.0357M8.04673 30.0234C7.68048 30.1225 7.38348 30.3513 7.72373 30.2727C7.97973 30.2135 8.48248 30.0054 8.48248 29.9588C8.48248 29.9117 8.43573 29.9183 8.04673 30.0234ZM6.45997 30.3639C6.24997 30.4815 5.90647 30.6756 5.69672 30.7954L5.31497 31.0136L5.60622 31.0373C5.76622 31.0504 6.17297 31.0282 6.50947 30.988C7.14547 30.912 7.49023 30.7234 7.49023 30.4509C7.49023 30.0941 7.01447 30.0537 6.45997 30.3639ZM8.60723 30.6475C8.09673 31.201 7.61348 31.4745 6.92922 31.5973L6.45997 31.6816L6.78997 31.7398C7.38148 31.8444 8.06898 31.6466 8.50598 31.2466C8.70098 31.0681 9.14598 30.2495 9.08198 30.1878C9.06698 30.1735 8.85348 30.3804 8.60723 30.6475ZM12.8322 30.4381C12.5862 30.681 12.5422 30.9387 12.7082 31.1631C12.9447 31.4821 13.5612 30.9404 13.5055 30.4628C13.4695 30.157 13.13 30.1447 12.8322 30.4381ZM9.63923 30.787C8.76023 32.1057 7.33423 32.5735 5.54522 32.1299C4.78122 31.9405 4.10021 31.5702 3.29396 30.9064L2.87596 30.5619L3.14146 30.8913C3.49721 31.3327 4.34396 31.9787 4.92147 32.2492C5.70222 32.6152 6.27797 32.7281 7.16947 32.6901C7.89998 32.6588 7.99648 32.6359 8.54098 32.3622C9.23823 32.0115 9.60398 31.5874 9.85198 30.8425C9.94148 30.5737 10.0027 30.3424 9.98848 30.3284C9.97398 30.3143 9.81698 30.5207 9.63923 30.787ZM36.7336 30.5091C36.5928 30.6211 36.1828 30.8649 35.8228 31.0514C35.1096 31.4202 34.8028 31.7253 34.9361 31.9336C35.1728 32.304 35.5243 32.2401 36.0386 31.7331C36.3878 31.3884 36.8661 30.7227 36.9741 30.4302C37.0348 30.2662 37.0416 30.264 36.7336 30.5091ZM25.4073 30.7562C25.183 30.8852 25.237 31.26 25.5133 31.491C25.645 31.601 25.9553 31.8663 26.2028 32.0803C26.6638 32.4786 27.1803 32.7101 27.5963 32.7042L27.8305 32.7007L27.5548 32.6036C26.9648 32.3957 26.6508 32.0729 26.256 31.2693C25.9968 30.7412 25.7225 30.5752 25.4073 30.7562ZM27.0068 31.1345C26.91 31.1899 26.885 31.2612 26.9218 31.3768C26.985 31.5771 27.0905 31.6508 27.3155 31.6525C27.5205 31.6538 27.5435 31.4654 27.3683 31.2185C27.235 31.0309 27.201 31.0228 27.0068 31.1345ZM29.7038 31.3902C29.6958 31.7405 30.7021 32.8568 31.2943 33.1544C32.0631 33.5406 33.3208 33.654 34.2448 33.4207C34.9588 33.2405 35.8786 32.7708 36.3026 32.3703C36.5126 32.1718 36.6156 32.0611 36.5316 32.1237C35.5948 32.8253 33.8578 33.2558 32.6396 33.0886C31.4846 32.9303 30.4798 32.3683 29.8713 31.5406C29.7801 31.4163 29.7046 31.3487 29.7038 31.3902ZM16.8355 31.7682C16.042 32.2325 15.7023 32.7131 15.8573 33.1507C15.9093 33.2972 15.9878 33.3532 16.1653 33.3702C16.4535 33.3981 16.6193 33.1986 16.8718 32.5192C16.9643 32.2709 17.1243 31.9405 17.2273 31.7852C17.3303 31.6298 17.3863 31.5031 17.3518 31.5031C17.3173 31.5031 17.085 31.6224 16.8355 31.7682ZM13.0155 31.797C12.6892 31.993 12.375 32.6329 12.375 33.1009C12.375 33.5246 12.5075 33.6257 12.8235 33.4432C13.2592 33.1917 13.766 32.1324 13.6247 31.7689C13.5637 31.6123 13.3027 31.6242 13.0155 31.797ZM11.792 31.8416C11.7315 31.997 11.8135 32.1804 11.9435 32.1804C12.0027 32.1804 12.0937 32.1297 12.146 32.0675C12.2217 31.9775 12.2217 31.9319 12.146 31.8416C12.0937 31.7795 12.0027 31.7287 11.9435 31.7287C11.8842 31.7287 11.816 31.7795 11.792 31.8416ZM14.2415 32.0059C14.0402 32.4719 13.6602 33.4977 13.7055 33.4528C13.863 33.2975 14.5265 32.1087 14.5373 31.963C14.5585 31.6693 14.3757 31.6959 14.2415 32.0059ZM28.7111 31.8434C28.7061 32.126 28.9863 32.987 29.2006 33.3475C29.9008 34.5262 31.4016 35.1604 32.7761 34.8588C33.3323 34.7367 34.3681 34.3015 34.4631 34.1501C34.4898 34.1075 34.3066 34.1519 34.0561 34.2488C32.4798 34.8578 30.9743 34.649 29.8886 33.6705C29.4053 33.2348 29.2198 32.9562 28.9288 32.2293C28.8106 31.9334 28.7123 31.7598 28.7111 31.8434ZM31.1211 31.9459C31.7706 32.2446 32.7316 32.4255 33.4736 32.3891C34.1036 32.3577 34.8141 32.1733 34.8143 32.0406C34.8143 32.014 34.4281 32.0041 33.9558 32.0184C33.2098 32.0414 31.5753 31.9405 30.9983 31.836C30.8783 31.8143 30.9236 31.8552 31.1211 31.9459ZM23.7298 32.2182C23.8108 32.3424 23.9393 32.6065 24.0148 32.805C24.104 33.0393 24.1785 33.1404 24.2265 33.0928C24.352 32.9695 24.2233 32.6709 23.895 32.3235C23.6738 32.0892 23.6255 32.0584 23.7298 32.2182ZM29.6598 32.1804C29.7483 32.4749 30.0741 32.9991 30.3663 33.3184C30.6996 33.6824 31.4288 34.0377 32.0286 34.1284C32.5118 34.2014 32.6941 34.1802 32.3236 34.0939C31.6271 33.9319 30.5386 33.1559 29.9086 32.3723C29.6903 32.101 29.6193 32.0461 29.6598 32.1804ZM9.70923 32.7291C9.49698 32.9554 9.17048 33.186 8.83148 33.3485C8.29048 33.6079 8.11723 33.7307 7.83473 34.0532L7.68323 34.2266L7.98748 34.1731C8.63173 34.0596 9.54848 33.4094 9.90173 32.8151C10.1815 32.3442 10.103 32.3094 9.70923 32.7291ZM17.5 32.6016C17.4763 32.9286 16.99 33.7356 16.5605 34.1605C16.056 34.6598 15.418 34.9816 14.6605 35.1182C14.2135 35.1991 13.43 35.1764 13.0817 35.0726C13.0077 35.0504 13.0742 35.1022 13.2292 35.1872C13.3845 35.2723 13.728 35.3719 13.9925 35.4082C15.173 35.5709 16.337 35.1138 16.988 34.2317C17.294 33.817 17.5918 32.9767 17.5443 32.6618C17.523 32.522 17.5073 32.5005 17.5 32.6016ZM4.88372 32.8585C5.29697 33.2284 5.86797 33.5078 6.44147 33.6207C6.99122 33.7292 7.67223 33.5842 8.22648 33.241C8.66823 32.9673 8.64673 32.9584 8.05548 33.17C7.16372 33.4886 6.29797 33.3687 4.93297 32.738L4.55147 32.5614L4.88372 32.8585ZM24.2178 33.2573C24.0985 33.3988 24.0258 33.9376 24.0845 34.2451C24.159 34.6381 24.4695 34.9663 24.765 34.9651C25.049 34.9636 25.1433 34.9113 25.262 34.6889C25.472 34.2959 25.2265 33.6503 24.7458 33.331C24.4508 33.1347 24.3343 33.1189 24.2178 33.2573ZM9.86573 33.7852C9.44673 34.3861 8.85023 34.665 7.98398 34.665C7.51148 34.665 7.35998 34.6292 6.93147 34.4164C6.41297 34.159 6.36147 34.2014 6.77722 34.5437C7.15372 34.8536 7.54098 34.9794 8.11898 34.9794C9.02323 34.9794 9.69823 34.5294 10.0575 33.6871C10.1912 33.3734 10.132 33.4037 9.86573 33.7852ZM15.5923 33.8375C15.41 34.0002 15.0525 34.2359 14.7978 34.3614C14.4493 34.5333 14.382 34.5898 14.5258 34.5898C14.9583 34.5898 16.0383 33.887 16.0383 33.6052C16.0383 33.4804 15.929 33.5374 15.5923 33.8375ZM10.2512 34.0909C9.86473 34.8095 9.10798 35.3451 8.32098 35.457C7.49973 35.5736 6.44222 35.0726 5.88247 34.3015C5.53322 33.8207 5.50397 33.8404 5.77747 34.373C6.80847 36.3797 9.65548 36.3153 10.3565 34.2695C10.5232 33.783 10.4675 33.6888 10.2512 34.0909ZM23.4808 34.1755C23.5458 34.81 23.7408 35.2649 24.0988 35.618C24.3893 35.9045 24.4713 35.9447 24.7663 35.9447C24.9718 35.9447 25.139 35.9008 25.1973 35.8318C25.2778 35.7359 25.259 35.7186 25.073 35.7171C24.738 35.7147 24.2475 35.4627 24.0298 35.1808C23.822 34.9123 23.7173 34.6857 23.5473 34.1378L23.4423 33.7992L23.4808 34.1755ZM27.8175 34.2569C27.7298 34.4825 27.865 35.3586 28.0485 35.7541C28.4376 36.5925 29.1228 37.0802 29.9896 37.1362C30.5881 37.1747 31.0621 37.0482 31.3921 36.7617L31.6466 36.5407L31.3796 36.6744C30.9713 36.879 30.0041 36.8593 29.5096 36.6362C28.7316 36.2858 28.246 35.6143 28.088 34.6709C28.0013 34.1521 27.9115 34.015 27.8175 34.2567M28.9371 34.2517C28.9371 34.4206 29.3821 35.0186 29.6821 35.2528C30.6621 36.0185 32.1408 36.2135 33.1731 35.7137C33.3411 35.6323 33.4106 35.5852 33.3276 35.6089C33.2446 35.6326 32.8496 35.6713 32.4498 35.6952C31.2148 35.7684 30.2448 35.4277 29.4141 34.6282C29.1518 34.3757 28.9371 34.2066 28.9371 34.2517ZM28.5628 34.5143C28.5553 35.1466 29.0716 35.9238 29.7163 36.2522C30.1451 36.4704 30.2336 36.4248 29.8488 36.1839C29.3458 35.869 29.0008 35.3783 28.7038 34.556L28.5666 34.1755L28.5628 34.5143ZM26.9823 34.432C26.8246 34.5277 26.6891 34.6551 26.5848 34.8059C26.4804 34.9568 26.4094 35.1276 26.3765 35.3073C26.3115 35.6619 26.326 35.6521 26.7198 35.0743C26.8604 34.8668 27.004 34.6613 27.1505 34.4579C27.3038 34.2522 27.2858 34.2493 26.9823 34.432ZM10.8427 34.9957C11.5425 35.9987 12.4492 36.4199 13.367 36.1676L13.7105 36.0735L13.367 35.981C12.6812 35.7965 11.4945 35.2602 11.039 34.9291C10.624 34.6273 10.593 34.6379 10.8427 34.9957ZM25.7228 35.2472C25.5408 35.2874 25.3985 35.6328 25.5095 35.765C25.643 35.9235 25.867 35.8902 25.9985 35.6917C26.18 35.4188 26.0315 35.1786 25.723 35.2469M27.1213 35.5152C26.896 36.1297 26.1528 36.4958 25.4278 36.3494C25.217 36.3067 25.0445 36.2924 25.0445 36.3173C25.0445 36.4103 25.6923 36.7728 25.941 36.8189C26.433 36.9101 26.8685 36.81 27.1493 36.5415C27.451 36.253 27.5393 35.9154 27.4123 35.5354C27.3008 35.2025 27.2375 35.1981 27.1213 35.5152ZM10.2297 36.0461C10.5352 36.4843 11.2282 36.9471 11.7717 37.0756C12.4155 37.2279 13.2725 37.1404 13.8417 36.864C14.1082 36.7345 14.406 36.5452 14.5035 36.4428L14.6805 36.2569L14.1955 36.4584C13.7505 36.6433 13.6255 36.6598 12.68 36.6598C11.6765 36.6598 11.6362 36.6537 11.127 36.4157C10.8395 36.2816 10.463 36.0614 10.2902 35.9265L9.97573 35.6811L10.2297 36.0461ZM9.05598 36.4529C9.28248 36.8046 9.50223 37.0137 9.75823 37.1212C10.062 37.2489 10.049 37.2494 10.194 37.1064C10.3897 36.9131 10.2145 36.7271 9.66698 36.5474C9.39398 36.4579 9.15123 36.3533 9.12723 36.3154C9.11323 36.2953 9.0948 36.2786 9.07332 36.2665C9.05185 36.2545 9.02788 36.2474 9.00323 36.2458C8.95898 36.2458 8.98273 36.339 9.05598 36.4529ZM10.314 37.1429C10.314 37.2186 10.829 37.4166 11.1917 37.4799C11.3475 37.5073 11.2742 37.4506 10.9627 37.3029C10.4752 37.0714 10.314 37.0317 10.314 37.1429Z" fill="black"/>
    <path d="M45 27.0024C45 24.3609 45.0943 21.7164 45.2828 19.0688C45.4714 16.4212 45.8655 13.8131 46.465 11.2447C46.6391 10.4778 46.8663 9.72002 47.1468 8.97139C47.4272 8.22276 47.7705 7.5563 48.1766 6.972C48.5828 6.38771 49.0663 5.91296 49.6271 5.54778C50.188 5.18259 50.8552 5 51.6288 5L51.9334 5.03652C52.7651 5.18259 53.3791 5.6056 53.7756 6.30554C54.1721 7.00548 54.3703 7.87888 54.3703 8.92575C54.3703 9.20572 54.3437 9.55569 54.2905 9.97565C54.2373 10.3956 54.1527 10.8004 54.0367 11.1899C53.9206 11.5794 53.7635 11.9111 53.5653 12.185C53.367 12.4589 53.118 12.5959 52.8183 12.5959C52.6829 12.5715 52.5596 12.5411 52.4484 12.5046C52.3372 12.468 52.2332 12.3889 52.1365 12.2672C52.2912 11.8411 52.429 11.3968 52.5499 10.9343C52.6708 10.4717 52.7312 9.94218 52.7312 9.34571C52.7312 9.1266 52.7167 8.84662 52.6877 8.50578C52.6587 8.16494 52.6031 7.82715 52.5209 7.49239C52.4387 7.15764 52.3299 6.86549 52.1945 6.61595C52.0592 6.3664 51.8706 6.24163 51.6288 6.24163C51.0196 6.24163 50.5071 6.67072 50.0913 7.52891C49.6755 8.3871 49.3274 9.48265 49.0469 10.8156C48.7665 12.1485 48.5586 13.6214 48.4232 15.2343C48.2878 16.8472 48.1839 18.4054 48.1113 19.9087C48.0388 21.4121 47.9977 22.7693 47.9881 23.9805C47.9784 25.1917 47.9735 26.0469 47.9735 26.546C47.9735 27.1302 47.9687 27.7754 47.959 28.4814V28.7188C47.9687 29.3396 48.0026 29.93 48.0606 30.49C48.1379 31.1229 48.2878 31.6707 48.5102 32.1333C48.7326 32.5959 49.0808 32.8637 49.5546 32.9367C49.6997 32.961 49.8399 32.9732 49.9753 32.9732C50.5361 32.9732 51.0438 32.7724 51.4983 32.3707C52.0592 31.8716 52.5572 31.2234 52.9923 30.4261C53.4275 29.6287 53.8143 28.7523 54.1527 27.7967C54.4912 26.8411 54.803 25.9373 55.0883 25.0852C55.3736 24.2331 55.6516 23.5271 55.9223 22.9671C56.1931 22.4072 56.4735 22.1272 56.7636 22.1272C56.8603 22.1272 57.0054 22.1516 57.1988 22.2002C57.3922 22.2489 57.4889 22.3646 57.4889 22.5472C57.4889 22.5959 57.4792 22.6628 57.4599 22.748C57.4406 22.8332 57.4164 22.9002 57.3874 22.9489C57.1263 24.2392 56.7951 25.5782 56.3938 26.9659C55.9925 28.3536 55.4799 29.6166 54.8562 30.7547C54.2325 31.8929 53.4686 32.8211 52.5644 33.5393C51.6603 34.2575 50.5748 34.6166 49.308 34.6166C48.399 34.6166 47.6617 34.4005 47.096 33.9684C46.5303 33.5362 46.0951 32.958 45.7905 32.2337C45.4859 31.5094 45.278 30.6908 45.1668 29.7778C45.0556 28.8649 45 27.9397 45 27.0024ZM60.4577 28.0067V26.2903C60.4577 25.6695 60.4698 24.79 60.4939 23.6519C60.5181 22.5137 60.5495 21.266 60.5882 19.9087C60.6269 18.5514 60.6801 17.1363 60.7478 15.6634C60.8155 14.1905 60.8928 12.7998 60.9798 11.4912C61.0669 10.1826 61.1708 9.01096 61.2917 7.97626C61.4126 6.94157 61.5504 6.17468 61.7051 5.67559C61.8018 5.39562 61.9614 5.21911 62.1838 5.14607C62.4062 5.07304 62.6238 5.03652 62.8365 5.03652C63.175 5.03652 63.4723 5.13086 63.7286 5.31954C63.9848 5.50822 64.113 5.8521 64.113 6.35119L63.8519 6.71637C63.5134 9.5283 63.2958 12.3524 63.1991 15.1887C63.1024 18.025 63.0347 20.8612 62.9961 23.6975C63.2378 23.2228 63.511 22.7572 63.8156 22.3007C64.1202 21.8442 64.4587 21.4394 64.831 21.0864C65.2033 20.7334 65.6046 20.4504 66.0349 20.2374C66.4652 20.0243 66.9366 19.9178 67.4491 19.9178C68.1067 19.9178 68.6506 20.1674 69.081 20.6665C69.5113 21.1656 69.8666 21.8138 70.1471 22.6111C70.4275 23.4084 70.6354 24.3001 70.7708 25.2861C70.9062 26.2721 71.0101 27.2581 71.0827 28.2441C71.1552 29.2301 71.206 30.1643 71.235 31.0469C71.264 31.9294 71.3075 32.6628 71.3655 33.2471C71.1818 33.5636 70.911 33.7219 70.5532 33.7219H70.5097C70.355 33.7219 70.1858 33.6975 70.002 33.6488C69.8183 33.6001 69.6974 33.4784 69.6394 33.2836L69.6684 33.3201C69.533 32.9428 69.4412 32.3981 69.3928 31.6859C69.3445 30.9738 69.3058 30.1887 69.2768 29.3305C69.2478 28.4723 69.197 27.5928 69.1245 26.692C69.0519 25.7912 68.9432 24.9757 68.7981 24.2453C68.6531 23.5149 68.4403 22.9124 68.1599 22.4376C67.8794 21.9629 67.5023 21.7133 67.0285 21.689H66.9414C66.3709 21.689 65.8922 21.9081 65.5054 22.3463C65.0993 22.8089 64.7705 23.4175 64.5191 24.1722C64.2677 24.927 64.0743 25.7669 63.9389 26.692C63.8035 27.6172 63.6996 28.5088 63.627 29.367C63.5545 30.2252 63.4989 31.0043 63.4602 31.7042C63.4215 32.4041 63.3732 32.9184 63.3152 33.2471C63.2571 33.5271 63.0855 33.7127 62.8002 33.804C62.515 33.8953 62.2708 33.941 62.0677 33.941C61.5939 33.941 61.2071 33.7705 60.9073 33.4297C60.6849 32.7602 60.5544 31.9264 60.5157 30.9282C60.477 29.93 60.4577 28.9562 60.4577 28.0067ZM74.3343 25.5782C74.3343 24.4583 74.4382 23.3597 74.6461 22.2824C74.854 21.2051 75.0305 20.1309 75.1756 19.0596C75.2142 18.7797 75.3665 18.6062 75.6325 18.5393C75.8984 18.4723 76.1232 18.4388 76.307 18.4388C76.6261 18.4388 76.8823 18.4997 77.0757 18.6214C77.1531 18.6701 77.2256 18.7249 77.2933 18.7858C77.361 18.8466 77.3948 18.9257 77.3948 19.0231C77.3948 20.07 77.2957 21.0925 77.0975 22.0907C76.8993 23.0889 76.8001 24.1479 76.8001 25.2678C76.8001 25.6452 76.8219 26.0012 76.8654 26.336C76.9089 26.6707 76.95 27.0024 76.9887 27.3311L77.0757 27.8606C77.0757 27.958 77.0806 28.0432 77.0902 28.1163C77.0999 28.1893 77.1144 28.2745 77.1338 28.3719C77.1338 28.591 77.0105 28.7401 76.7639 28.8192C76.5173 28.8984 76.3021 28.9379 76.1184 28.9379C75.838 28.9379 75.5793 28.8679 75.3424 28.7279C75.1055 28.5879 74.9193 28.3475 74.7839 28.0067L74.5809 27.4772C74.4648 27.1972 74.4068 26.8837 74.4068 26.5368C74.4068 26.1899 74.3826 25.8704 74.3343 25.5782ZM75.2626 14.5861V14.2392C75.2626 13.6671 75.3762 13.1558 75.6035 12.7054C75.8307 12.255 76.1716 12.0298 76.6261 12.0298C76.6841 12.0298 76.7397 12.0359 76.7929 12.0481C76.8461 12.0603 76.9017 12.0663 76.9597 12.0663C77.0757 12.0907 77.228 12.1485 77.4166 12.2398C77.6052 12.3311 77.6995 12.4741 77.6995 12.6689V12.7054C77.6608 12.8028 77.6366 12.9032 77.6269 13.0067C77.6173 13.1102 77.5931 13.1984 77.5544 13.2715L77.5834 13.2349C77.4674 13.6123 77.3731 13.9166 77.3006 14.1479C77.228 14.3792 77.1483 14.5648 77.0612 14.7048C76.9742 14.8448 76.8654 14.9452 76.7349 15.0061C76.6043 15.067 76.4182 15.0974 76.1764 15.0974C76.1377 15.0974 76.07 15.0913 75.9733 15.0791C75.8766 15.067 75.7727 15.0426 75.6615 15.0061C75.5503 14.9696 75.456 14.9209 75.3786 14.86C75.3013 14.7991 75.2626 14.7079 75.2626 14.5861ZM80.0735 14.4218C80.0735 14.2514 80.2186 14.1053 80.5087 13.9836C80.7988 13.8618 81.1275 13.7614 81.495 13.6823C81.8625 13.6032 82.2178 13.5453 82.5611 13.5088C82.9044 13.4723 83.1389 13.4419 83.2646 13.4175C83.2646 13.0889 83.2743 12.7572 83.2936 12.4224C83.313 12.0876 83.3662 11.7894 83.4532 11.5277C83.5402 11.266 83.678 11.056 83.8666 10.8977C84.0552 10.7395 84.3187 10.6604 84.6571 10.6604C84.9376 10.6604 85.1503 10.703 85.2953 10.7882C85.4404 10.8734 85.5951 11.0499 85.7595 11.3177C85.7982 11.4638 85.8175 11.6038 85.8175 11.7377V12.3494C85.8175 12.3494 85.8079 12.5593 85.7885 12.9793C86.1463 12.9306 86.5017 12.8728 86.8546 12.8058C87.2076 12.7389 87.563 12.7054 87.9208 12.7054C88.1819 12.7054 88.3608 12.7115 88.4575 12.7237C88.5542 12.7358 88.6509 12.8819 88.7476 13.1619C88.8249 13.4419 88.7306 13.6549 88.4647 13.801C88.1988 13.947 87.8797 14.0566 87.5074 14.1296C87.1351 14.2027 86.7652 14.2575 86.3977 14.294C86.0303 14.3305 85.8079 14.3488 85.7305 14.3488C85.6145 16.4425 85.496 18.518 85.3751 20.5752C85.2542 22.6324 85.1938 24.72 85.1938 26.8381C85.1938 27.7876 85.218 28.7675 85.2663 29.7778C85.3147 30.7882 85.4501 31.7438 85.6725 32.6446C85.7305 32.9245 85.8272 33.1862 85.9626 33.4297C86.098 33.6732 86.1657 33.9349 86.1657 34.2149C86.1657 34.3853 86.1125 34.5192 86.0061 34.6166C85.8997 34.7139 85.7716 34.7961 85.6217 34.8631C85.4718 34.93 85.3219 34.9696 85.1721 34.9817C85.0222 34.9939 84.8989 35 84.8022 35C84.193 35 83.7288 34.7139 83.4097 34.1418C83.0906 33.5697 82.8609 32.885 82.7207 32.0876C82.5805 31.2903 82.5055 30.4717 82.4959 29.6318C82.4862 28.7918 82.4814 28.1102 82.4814 27.5867C82.4814 26.5155 82.4983 25.42 82.5321 24.3001C82.566 23.1802 82.6071 22.0724 82.6554 20.9769C82.7038 19.8813 82.7715 18.8101 82.8585 17.7632C82.9455 16.7164 83.0471 15.7425 83.1631 14.8418C82.8246 14.8904 82.4934 14.9452 82.1695 15.0061C81.8455 15.067 81.5143 15.0974 81.1759 15.0974C81.0985 15.0974 80.9946 15.0913 80.864 15.0791C80.7335 15.067 80.6102 15.0365 80.4942 14.9878C80.3781 14.9391 80.279 14.8722 80.1968 14.787C80.1146 14.7018 80.0735 14.58 80.0735 14.4218ZM91.1651 27.0024C91.1651 24.3609 91.2594 21.7164 91.448 19.0688C91.6365 16.4212 92.0306 13.8131 92.6301 11.2447C92.8042 10.4778 93.0315 9.72002 93.3119 8.97139C93.5923 8.22276 93.9356 7.5563 94.3417 6.972C94.7479 6.38771 95.2314 5.91296 95.7923 5.54778C96.3531 5.18259 97.0204 5 97.794 5L98.0986 5.03652C98.9302 5.18259 99.5442 5.6056 99.9407 6.30554C100.337 7.00548 100.535 7.87888 100.535 8.92575C100.535 9.20572 100.509 9.55569 100.456 9.97565C100.402 10.3956 100.318 10.8004 100.202 11.1899C100.086 11.5794 99.9286 11.9111 99.7304 12.185C99.5322 12.4589 99.2832 12.5959 98.9834 12.5959C98.848 12.5715 98.7247 12.5411 98.6135 12.5046C98.5023 12.468 98.3983 12.3889 98.3016 12.2672C98.4564 11.8411 98.5942 11.3968 98.715 10.9343C98.8359 10.4717 98.8964 9.94218 98.8964 9.34571C98.8964 9.1266 98.8818 8.84662 98.8528 8.50578C98.8238 8.16494 98.7682 7.82715 98.686 7.49239C98.6038 7.15764 98.495 6.86549 98.3597 6.61595C98.2243 6.3664 98.0357 6.24163 97.794 6.24163C97.1848 6.24163 96.6722 6.67072 96.2564 7.52891C95.8406 8.3871 95.4925 9.48265 95.2121 10.8156C94.9316 12.1485 94.7237 13.6214 94.5883 15.2343C94.453 16.8472 94.349 18.4054 94.2765 19.9087C94.204 21.4121 94.1629 22.7693 94.1532 23.9805C94.1435 25.1917 94.1387 26.0469 94.1387 26.546C94.1387 27.1302 94.1338 27.7754 94.1242 28.4814V28.7188C94.1338 29.3396 94.1677 29.93 94.2257 30.49C94.3031 31.1229 94.453 31.6707 94.6754 32.1333C94.8978 32.5959 95.2459 32.8637 95.7197 32.9367C95.8648 32.961 96.005 32.9732 96.1404 32.9732C96.7012 32.9732 97.2089 32.7724 97.6634 32.3707C98.2243 31.8716 98.7223 31.2234 99.1574 30.4261C99.5926 29.6287 99.9794 28.7523 100.318 27.7967C100.656 26.8411 100.968 25.9373 101.253 25.0852C101.539 24.2331 101.817 23.5271 102.087 22.9671C102.358 22.4072 102.639 22.1272 102.929 22.1272C103.025 22.1272 103.171 22.1516 103.364 22.2002C103.557 22.2489 103.654 22.3646 103.654 22.5472C103.654 22.5959 103.644 22.6628 103.625 22.748C103.606 22.8332 103.582 22.9002 103.552 22.9489C103.291 24.2392 102.96 25.5782 102.559 26.9659C102.158 28.3536 101.645 29.6166 101.021 30.7547C100.398 31.8929 99.6337 32.8211 98.7295 33.5393C97.8254 34.2575 96.7399 34.6166 95.4731 34.6166C94.5642 34.6166 93.8268 34.4005 93.2611 33.9684C92.6954 33.5362 92.2603 32.958 91.9557 32.2337C91.6511 31.5094 91.4431 30.6908 91.3319 29.7778C91.2207 28.8649 91.1651 27.9397 91.1651 27.0024ZM106.623 28.0067V26.2903C106.623 25.6695 106.635 24.79 106.659 23.6519C106.683 22.5137 106.715 21.266 106.753 19.9087C106.792 18.5514 106.845 17.1363 106.913 15.6634C106.981 14.1905 107.058 12.7998 107.145 11.4912C107.232 10.1826 107.336 9.01096 107.457 7.97626C107.578 6.94157 107.716 6.17468 107.87 5.67559C107.967 5.39562 108.126 5.21911 108.349 5.14607C108.571 5.07304 108.789 5.03652 109.002 5.03652C109.34 5.03652 109.637 5.13086 109.894 5.31954C110.15 5.50822 110.278 5.8521 110.278 6.35119L110.017 6.71637C109.679 9.5283 109.461 12.3524 109.364 15.1887C109.268 18.025 109.2 20.8612 109.161 23.6975C109.403 23.2228 109.676 22.7572 109.981 22.3007C110.285 21.8442 110.624 21.4394 110.996 21.0864C111.368 20.7334 111.77 20.4504 112.2 20.2374C112.63 20.0243 113.102 19.9178 113.614 19.9178C114.272 19.9178 114.816 20.1674 115.246 20.6665C115.676 21.1656 116.032 21.8138 116.312 22.6111C116.593 23.4084 116.801 24.3001 116.936 25.2861C117.071 26.2721 117.175 27.2581 117.248 28.2441C117.32 29.2301 117.371 30.1643 117.4 31.0469C117.429 31.9294 117.473 32.6628 117.531 33.2471C117.347 33.5636 117.076 33.7219 116.718 33.7219H116.675C116.52 33.7219 116.351 33.6975 116.167 33.6488C115.983 33.6001 115.863 33.4784 115.805 33.2836L115.834 33.3201C115.698 32.9428 115.606 32.3981 115.558 31.6859C115.51 30.9738 115.471 30.1887 115.442 29.3305C115.413 28.4723 115.362 27.5928 115.29 26.692C115.217 25.7912 115.108 24.9757 114.963 24.2453C114.818 23.5149 114.605 22.9124 114.325 22.4376C114.045 21.9629 113.667 21.7133 113.194 21.689H113.107C112.536 21.689 112.057 21.9081 111.671 22.3463C111.264 22.8089 110.936 23.4175 110.684 24.1722C110.433 24.927 110.239 25.7669 110.104 26.692C109.969 27.6172 109.865 28.5088 109.792 29.367C109.72 30.2252 109.664 31.0043 109.625 31.7042C109.587 32.4041 109.538 32.9184 109.48 33.2471C109.422 33.5271 109.251 33.7127 108.965 33.804C108.68 33.8953 108.436 33.941 108.233 33.941C107.759 33.941 107.372 33.7705 107.072 33.4297C106.85 32.7602 106.719 31.9264 106.681 30.9282C106.642 29.93 106.623 28.9562 106.623 28.0067ZM120.499 26.0164C120.499 25.1887 120.589 24.3914 120.768 23.6245C120.947 22.8576 121.215 22.1729 121.573 21.5703C121.931 20.9677 122.378 20.4869 122.914 20.1278C123.451 19.7687 124.072 19.5892 124.778 19.5892C125.214 19.5892 125.695 19.6713 126.222 19.8357C126.749 20 127.244 20.2435 127.708 20.566C128.173 20.8886 128.559 21.2995 128.869 21.7985C129.178 22.2976 129.333 22.8698 129.333 23.5149C129.333 23.8192 129.292 24.0505 129.21 24.2088C129.128 24.367 128.961 24.4461 128.709 24.4461L128.55 24.4096C128.83 25.3591 129.072 26.3329 129.275 27.3311C129.478 28.3293 129.676 29.3274 129.87 30.3256C129.947 30.5204 130.005 30.6939 130.044 30.846C130.082 30.9982 130.102 31.1473 130.102 31.2934C130.102 31.4881 130.058 31.6494 129.971 31.7772C129.884 31.9051 129.771 31.9994 129.63 32.0603C129.49 32.1211 129.345 32.1637 129.195 32.1881C129.045 32.2124 128.912 32.2246 128.796 32.2246C128.381 32.2246 128.069 32.1333 127.861 31.9507C127.653 31.7681 127.503 31.5186 127.411 31.2021C127.319 30.8856 127.264 30.5295 127.244 30.1339C127.225 29.7383 127.186 29.3396 127.128 28.9379C127.012 29.4127 126.86 29.8752 126.671 30.3256C126.483 30.776 126.26 31.1808 126.004 31.5399C125.748 31.899 125.446 32.185 125.098 32.3981C124.749 32.6111 124.358 32.7176 123.923 32.7176C123.284 32.7176 122.748 32.4863 122.313 32.0237C121.877 31.5612 121.527 30.9921 121.261 30.3165C120.995 29.6409 120.802 28.9197 120.681 28.1528C120.56 27.3859 120.499 26.6738 120.499 26.0164ZM122.559 25.7608C122.559 26.2112 122.583 26.6859 122.632 27.185C122.68 27.6841 122.76 28.1771 122.871 28.664C122.982 29.1509 123.125 29.6105 123.299 30.0426C123.473 30.4747 123.691 30.8551 123.952 31.1838C124.425 30.5386 124.776 29.7535 125.003 28.8284C125.23 27.9032 125.434 27.0116 125.612 26.1534C125.791 25.2952 125.994 24.5587 126.222 23.944C126.449 23.3293 126.799 23.0219 127.273 23.0219C127.573 23.0219 127.824 23.0889 128.028 23.2228C127.931 22.9184 127.771 22.6233 127.549 22.3372C127.326 22.0511 127.077 21.7894 126.802 21.552C126.526 21.3147 126.241 21.1199 125.946 20.9677C125.651 20.8156 125.373 20.7395 125.112 20.7395C125.035 20.7395 124.945 20.7547 124.844 20.7851C124.742 20.8156 124.662 20.8186 124.604 20.7943C124.208 20.9404 123.882 21.1929 123.625 21.552C123.369 21.9111 123.161 22.3341 123.002 22.8211C122.842 23.308 122.728 23.8071 122.661 24.3183C122.593 24.8296 122.559 25.3104 122.559 25.7608ZM132.476 14.4218C132.476 14.2514 132.621 14.1053 132.911 13.9836C133.201 13.8618 133.53 13.7614 133.897 13.6823C134.265 13.6032 134.62 13.5453 134.963 13.5088C135.307 13.4723 135.541 13.4419 135.667 13.4175C135.667 13.0889 135.677 12.7572 135.696 12.4224C135.715 12.0876 135.768 11.7894 135.856 11.5277C135.943 11.266 136.08 11.056 136.269 10.8977C136.457 10.7395 136.721 10.6604 137.059 10.6604C137.34 10.6604 137.553 10.703 137.698 10.7882C137.843 10.8734 137.997 11.0499 138.162 11.3177C138.201 11.4638 138.22 11.6038 138.22 11.7377V12.3494C138.22 12.3494 138.21 12.5593 138.191 12.9793C138.549 12.9306 138.904 12.8728 139.257 12.8058C139.61 12.7389 139.965 12.7054 140.323 12.7054C140.584 12.7054 140.763 12.7115 140.86 12.7237C140.956 12.7358 141.053 12.8819 141.15 13.1619C141.227 13.4419 141.133 13.6549 140.867 13.801C140.601 13.947 140.282 14.0566 139.91 14.1296C139.537 14.2027 139.168 14.2575 138.8 14.294C138.433 14.3305 138.21 14.3488 138.133 14.3488C138.017 16.4425 137.898 18.518 137.777 20.5752C137.657 22.6324 137.596 24.72 137.596 26.8381C137.596 27.7876 137.62 28.7675 137.669 29.7778C137.717 30.7882 137.852 31.7438 138.075 32.6446C138.133 32.9245 138.23 33.1862 138.365 33.4297C138.5 33.6732 138.568 33.9349 138.568 34.2149C138.568 34.3853 138.515 34.5192 138.408 34.6166C138.302 34.7139 138.174 34.7961 138.024 34.8631C137.874 34.93 137.724 34.9696 137.574 34.9817C137.424 34.9939 137.301 35 137.204 35C136.595 35 136.131 34.7139 135.812 34.1418C135.493 33.5697 135.263 32.885 135.123 32.0876C134.983 31.2903 134.908 30.4717 134.898 29.6318C134.889 28.7918 134.884 28.1102 134.884 27.5867C134.884 26.5155 134.901 25.42 134.934 24.3001C134.968 23.1802 135.009 22.0724 135.058 20.9769C135.106 19.8813 135.174 18.8101 135.261 17.7632C135.348 16.7164 135.449 15.7425 135.565 14.8418C135.227 14.8904 134.896 14.9452 134.572 15.0061C134.248 15.067 133.917 15.0974 133.578 15.0974C133.501 15.0974 133.397 15.0913 133.266 15.0791C133.136 15.067 133.013 15.0365 132.896 14.9878C132.78 14.9391 132.681 14.8722 132.599 14.787C132.517 14.7018 132.476 14.58 132.476 14.4218ZM143.567 27.0024C143.567 24.3609 143.662 21.7164 143.85 19.0688C144.039 16.4212 144.433 13.8131 145.032 11.2447C145.207 10.4778 145.434 9.72002 145.714 8.97139C145.995 8.22276 146.338 7.5563 146.744 6.972C147.15 6.38771 147.634 5.91296 148.195 5.54778C148.755 5.18259 149.423 5 150.196 5L150.501 5.03652C151.333 5.18259 151.947 5.6056 152.343 6.30554C152.74 7.00548 152.938 7.87888 152.938 8.92575C152.938 9.20572 152.911 9.55569 152.858 9.97565C152.805 10.3956 152.72 10.8004 152.604 11.1899C152.488 11.5794 152.331 11.9111 152.133 12.185C151.934 12.4589 151.685 12.5959 151.386 12.5959C151.25 12.5715 151.127 12.5411 151.016 12.5046C150.905 12.468 150.801 12.3889 150.704 12.2672C150.859 11.8411 150.996 11.3968 151.117 10.9343C151.238 10.4717 151.299 9.94218 151.299 9.34571C151.299 9.1266 151.284 8.84662 151.255 8.50578C151.226 8.16494 151.171 7.82715 151.088 7.49239C151.006 7.15764 150.897 6.86549 150.762 6.61595C150.627 6.3664 150.438 6.24163 150.196 6.24163C149.587 6.24163 149.075 6.67072 148.659 7.52891C148.243 8.3871 147.895 9.48265 147.614 10.8156C147.334 12.1485 147.126 13.6214 146.991 15.2343C146.855 16.8472 146.751 18.4054 146.679 19.9087C146.606 21.4121 146.565 22.7693 146.556 23.9805C146.546 25.1917 146.541 26.0469 146.541 26.546C146.541 27.1302 146.536 27.7754 146.527 28.4814V28.7188C146.536 29.3396 146.57 29.93 146.628 30.49C146.705 31.1229 146.855 31.6707 147.078 32.1333C147.3 32.5959 147.648 32.8637 148.122 32.9367C148.267 32.961 148.407 32.9732 148.543 32.9732C149.104 32.9732 149.611 32.7724 150.066 32.3707C150.627 31.8716 151.125 31.2234 151.56 30.4261C151.995 29.6287 152.382 28.7523 152.72 27.7967C153.059 26.8411 153.37 25.9373 153.656 25.0852C153.941 24.2331 154.219 23.5271 154.49 22.9671C154.761 22.4072 155.041 22.1272 155.331 22.1272C155.428 22.1272 155.573 22.1516 155.766 22.2002C155.96 22.2489 156.056 22.3646 156.056 22.5472C156.056 22.5959 156.047 22.6628 156.027 22.748C156.008 22.8332 155.984 22.9002 155.955 22.9489C155.694 24.2392 155.363 25.5782 154.961 26.9659C154.56 28.3536 154.047 29.6166 153.424 30.7547C152.8 31.8929 152.036 32.8211 151.132 33.5393C150.228 34.2575 149.142 34.6166 147.875 34.6166C146.966 34.6166 146.229 34.4005 145.663 33.9684C145.098 33.5362 144.663 32.958 144.358 32.2337C144.053 31.5094 143.845 30.6908 143.734 29.7778C143.623 28.8649 143.567 27.9397 143.567 27.0024ZM158.735 26.3634C158.735 25.6695 158.805 24.9544 158.945 24.2179C159.086 23.4814 159.308 22.818 159.613 22.2276C159.917 21.6372 160.302 21.1564 160.766 20.7851C161.23 20.4139 161.791 20.2282 162.448 20.2282C162.942 20.2282 163.461 20.3348 164.008 20.5478C164.554 20.7608 165.054 21.0651 165.509 21.4607C165.963 21.8564 166.333 22.3402 166.619 22.9124C166.904 23.4845 167.046 24.1236 167.046 24.8296C167.046 25.6817 166.923 26.4912 166.677 27.2581C166.43 28.025 166.084 28.7097 165.639 29.3122C165.195 29.9148 164.675 30.3895 164.08 30.7365C163.485 31.0834 162.84 31.2568 162.144 31.2568C161.573 31.2568 161.075 31.126 160.65 30.8643C160.224 30.6026 159.869 30.2526 159.584 29.8144C159.298 29.3761 159.086 28.8588 158.945 28.2623C158.805 27.6659 158.735 27.0329 158.735 26.3634ZM160.867 26.3268C160.867 26.546 160.894 26.8685 160.947 27.2946C161 27.7206 161.08 28.1376 161.186 28.5453C161.293 28.9531 161.431 29.3061 161.6 29.6044C161.769 29.9026 161.974 30.0396 162.216 30.0152C162.729 29.9422 163.152 29.7322 163.485 29.3853C163.819 29.0383 164.09 28.6153 164.298 28.1163C164.506 27.6172 164.651 27.0755 164.733 26.4912C164.815 25.9069 164.856 25.353 164.856 24.8296C164.856 24.1601 164.752 23.6001 164.544 23.1497C164.336 22.6993 163.996 22.3341 163.522 22.0542C163.522 22.0785 163.531 22.0907 163.551 22.0907C163.57 22.0907 163.58 22.0785 163.58 22.0542L163.217 21.9446C163.12 21.8959 163.002 21.8411 162.862 21.7803C162.722 21.7194 162.584 21.5855 162.448 21.3786C162.071 21.549 161.779 21.7681 161.571 22.0359C161.363 22.3037 161.206 22.6293 161.099 23.0128C160.993 23.3962 160.928 23.8558 160.904 24.3914C160.879 24.927 160.867 25.5721 160.867 26.3268ZM169.74 26.1077V25.5782C169.74 25.14 169.749 24.7261 169.769 24.3366C169.788 23.7888 169.798 23.3384 169.798 22.9854C169.798 22.7906 169.807 22.5685 169.827 22.3189C169.846 22.0694 169.894 21.8716 169.972 21.7255C170.068 21.6038 170.182 21.479 170.313 21.3512C170.443 21.2234 170.586 21.1595 170.74 21.1595C171.234 21.1595 171.62 21.2295 171.901 21.3694C172.181 21.5094 172.331 21.7985 172.351 22.2368L172.409 22.8028C172.583 22.2794 172.815 21.6312 173.105 20.8582C173.395 20.0852 173.731 19.3488 174.113 18.6488C174.495 17.9489 174.925 17.3524 175.404 16.8594C175.883 16.3664 176.388 16.1199 176.92 16.1199C177.413 16.1199 177.819 16.4121 178.138 16.9963C178.457 17.5806 178.711 18.3262 178.9 19.2331C179.088 20.14 179.221 21.1503 179.298 22.2642C179.376 23.378 179.429 24.4705 179.458 25.5417C179.487 26.6129 179.506 27.5898 179.516 28.4723C179.526 29.3548 179.56 30.0213 179.618 30.4717C179.656 30.8491 179.722 31.2477 179.813 31.6677C179.905 32.0876 179.951 32.4741 179.951 32.8271C179.951 32.9245 179.896 33.0189 179.784 33.1102C179.673 33.2015 179.555 33.2775 179.429 33.3384C179.303 33.3993 179.175 33.448 179.045 33.4845C178.914 33.521 178.82 33.5393 178.762 33.5393C178.385 33.5393 178.116 33.1832 177.957 32.4711C177.797 31.759 177.698 30.8673 177.659 29.7961C177.621 28.7249 177.601 27.5654 177.601 26.3177C177.601 25.07 177.568 23.9105 177.5 22.8393C177.432 21.7681 177.294 20.8764 177.086 20.1643C176.879 19.4522 176.547 19.084 176.093 19.0596C175.677 19.0596 175.247 19.3974 174.802 20.073C174.357 20.7486 173.975 21.6464 173.656 22.7663C173.347 23.8862 173.134 25.1582 173.018 26.5825C172.979 27.0329 172.96 27.4833 172.96 27.9337C172.96 28.9197 173.042 29.9057 173.206 30.8917C173.226 31.0621 173.17 31.1899 173.04 31.2751C172.909 31.3603 172.747 31.4273 172.554 31.476C172.36 31.5247 172.164 31.5551 171.966 31.5673C171.768 31.5794 171.616 31.5855 171.509 31.5855C171.132 31.5855 170.83 31.4181 170.603 31.0834C170.375 30.7486 170.199 30.3195 170.073 29.7961C169.948 29.2727 169.863 28.6853 169.819 28.0341C169.776 27.3828 169.749 26.7407 169.74 26.1077ZM182.934 26.1077V25.5782C182.934 25.14 182.944 24.7261 182.963 24.3366C182.983 23.7888 182.992 23.3384 182.992 22.9854C182.992 22.7906 183.002 22.5685 183.022 22.3189C183.041 22.0694 183.089 21.8716 183.167 21.7255C183.263 21.6038 183.377 21.479 183.507 21.3512C183.638 21.2234 183.781 21.1595 183.935 21.1595C184.429 21.1595 184.815 21.2295 185.096 21.3694C185.376 21.5094 185.526 21.7985 185.545 22.2368L185.603 22.8028C185.777 22.2794 186.01 21.6312 186.3 20.8582C186.59 20.0852 186.926 19.3488 187.308 18.6488C187.69 17.9489 188.12 17.3524 188.599 16.8594C189.077 16.3664 189.583 16.1199 190.115 16.1199C190.608 16.1199 191.014 16.4121 191.333 16.9963C191.652 17.5806 191.906 18.3262 192.094 19.2331C192.283 20.14 192.416 21.1503 192.493 22.2642C192.571 23.378 192.624 24.4705 192.653 25.5417C192.682 26.6129 192.701 27.5898 192.711 28.4723C192.721 29.3548 192.754 30.0213 192.812 30.4717C192.851 30.8491 192.916 31.2477 193.008 31.6677C193.1 32.0876 193.146 32.4741 193.146 32.8271C193.146 32.9245 193.09 33.0189 192.979 33.1102C192.868 33.2015 192.75 33.2775 192.624 33.3384C192.498 33.3993 192.37 33.448 192.24 33.4845C192.109 33.521 192.015 33.5393 191.957 33.5393C191.58 33.5393 191.311 33.1832 191.152 32.4711C190.992 31.759 190.893 30.8673 190.854 29.7961C190.816 28.7249 190.796 27.5654 190.796 26.3177C190.796 25.07 190.762 23.9105 190.695 22.8393C190.627 21.7681 190.489 20.8764 190.281 20.1643C190.073 19.4522 189.742 19.084 189.288 19.0596C188.872 19.0596 188.442 19.3974 187.997 20.073C187.552 20.7486 187.17 21.6464 186.851 22.7663C186.541 23.8862 186.329 25.1582 186.213 26.5825C186.174 27.0329 186.155 27.4833 186.155 27.9337C186.155 28.9197 186.237 29.9057 186.401 30.8917C186.421 31.0621 186.365 31.1899 186.234 31.2751C186.104 31.3603 185.942 31.4273 185.748 31.476C185.555 31.5247 185.359 31.5551 185.161 31.5673C184.963 31.5794 184.81 31.5855 184.704 31.5855C184.327 31.5855 184.025 31.4181 183.798 31.0834C183.57 30.7486 183.394 30.3195 183.268 29.7961C183.142 29.2727 183.058 28.6853 183.014 28.0341C182.971 27.3828 182.944 26.7407 182.934 26.1077ZM196.115 26.7651C196.115 25.913 196.19 24.9087 196.34 23.7523C196.49 22.5959 196.743 21.5003 197.101 20.4656C197.459 19.4309 197.93 18.5514 198.515 17.8271C199.1 17.1029 199.838 16.7407 200.727 16.7407C201.559 16.7407 202.183 17.042 202.599 17.6446C203.014 18.2471 203.222 19.0596 203.222 20.0822C203.222 20.7517 203.123 21.4851 202.925 22.2824C202.727 23.0797 202.444 23.8344 202.076 24.5466C201.709 25.2587 201.274 25.8521 200.771 26.3268C200.268 26.8016 199.707 27.039 199.088 27.039L198.711 27.0024C198.711 27.3311 198.75 27.7724 198.827 28.3262C198.905 28.8801 199.018 29.4309 199.168 29.9787C199.318 30.5265 199.511 31.0073 199.748 31.4212C199.985 31.8351 200.273 32.042 200.611 32.042C201.105 32.042 201.578 31.7925 202.033 31.2934C202.487 30.7943 202.918 30.2404 203.324 29.6318C203.73 29.0231 204.107 28.4693 204.455 27.9702C204.803 27.4711 205.123 27.2215 205.413 27.2215C205.567 27.2215 205.727 27.252 205.891 27.3128C206.056 27.3737 206.148 27.5441 206.167 27.8241C206.167 27.9945 206.131 28.1345 206.058 28.2441C205.986 28.3536 205.92 28.4754 205.862 28.6093C205.562 29.2544 205.236 29.8691 204.883 30.4534C204.53 31.0377 204.131 31.5673 203.687 32.042C203.242 32.5167 202.756 32.8911 202.229 33.1649C201.702 33.4388 201.119 33.5758 200.481 33.5758C199.649 33.5758 198.958 33.3901 198.407 33.0189C197.855 32.6476 197.411 32.1485 197.072 31.5216C196.734 30.8947 196.49 30.1704 196.34 29.3488C196.19 28.5271 196.115 27.6659 196.115 26.7651ZM198.711 25.3774L199.117 25.8338C199.311 26.053 199.504 26.1016 199.698 25.9799C199.891 25.8582 200.065 25.636 200.22 25.3135C200.375 24.9909 200.517 24.5922 200.648 24.1175C200.778 23.6427 200.894 23.1558 200.996 22.6567C201.097 22.1576 201.172 21.6707 201.221 21.196C201.269 20.7212 201.293 20.3256 201.293 20.0091V19.3883C201.293 19.3883 201.279 19.1692 201.25 18.731C201.221 18.2928 201.17 18.1193 201.097 18.2106C201.025 18.3019 200.911 18.2136 200.756 17.9458C200.708 17.9337 200.665 17.9276 200.626 17.9276C200.297 17.9276 200.017 18.1893 199.785 18.7127C199.533 19.297 199.33 20.0061 199.175 20.8399C199.021 21.6738 198.909 22.5289 198.842 23.4054C198.774 24.2818 198.731 24.9391 198.711 25.3774ZM208.236 25.6512C208.236 24.7748 208.326 23.8953 208.505 23.0128C208.684 22.1302 208.962 21.339 209.339 20.6391C209.716 19.9391 210.197 19.3701 210.782 18.9318C211.367 18.4936 212.056 18.2745 212.849 18.2745C213.187 18.2745 213.56 18.3262 213.966 18.4297C214.372 18.5332 214.747 18.6975 215.09 18.9227C215.433 19.1479 215.723 19.44 215.96 19.7991C216.197 20.1582 216.316 20.5995 216.316 21.1229C216.316 21.4516 216.248 21.6707 216.113 21.7803C215.977 21.8898 215.798 21.9446 215.576 21.9446L215.474 21.762C215.474 21.762 215.38 21.6068 215.192 21.2964C215.003 20.986 214.875 20.7851 214.807 20.6939C214.739 20.6026 214.609 20.423 214.416 20.1552C214.019 19.6561 213.647 19.3883 213.299 19.3518H213.183C212.892 19.3518 212.622 19.4614 212.37 19.6805C212.09 19.9483 211.841 20.3256 211.623 20.8125C211.406 21.2995 211.224 21.8168 211.079 22.3646C210.934 22.9124 210.821 23.4662 210.738 24.0262C210.656 24.5861 210.615 25.0487 210.615 25.4139C210.615 25.913 210.661 26.482 210.753 27.1211C210.845 27.7602 211 28.3658 211.217 28.9379C211.435 29.51 211.71 29.9909 212.044 30.3804C212.378 30.7699 212.805 30.9647 213.328 30.9647C213.801 30.9647 214.232 30.8186 214.619 30.5265C215.005 30.2343 215.375 29.9087 215.728 29.5496C216.081 29.1905 216.427 28.8679 216.765 28.5819C217.104 28.2958 217.452 28.1528 217.81 28.1528C217.964 28.1528 218.122 28.1771 218.281 28.2258C218.441 28.2745 218.52 28.4023 218.52 28.6093V28.7188C218.346 29.2909 218.051 29.7961 217.636 30.2343C217.22 30.6726 216.753 31.053 216.236 31.3755C215.719 31.6981 215.182 31.9385 214.626 32.0968C214.07 32.255 213.574 32.3341 213.139 32.3341C212.327 32.3341 211.614 32.1668 211 31.832C210.385 31.4973 209.875 31.0377 209.469 30.4534C209.063 29.8691 208.756 29.1662 208.548 28.3445C208.34 27.5228 208.236 26.6251 208.236 25.6512ZM220.3 14.4218C220.3 14.2514 220.445 14.1053 220.735 13.9836C221.025 13.8618 221.354 13.7614 221.721 13.6823C222.089 13.6032 222.444 13.5453 222.787 13.5088C223.131 13.4723 223.365 13.4419 223.491 13.4175C223.491 13.0889 223.501 12.7572 223.52 12.4224C223.539 12.0876 223.592 11.7894 223.679 11.5277C223.767 11.266 223.904 11.056 224.093 10.8977C224.281 10.7395 224.545 10.6604 224.883 10.6604C225.164 10.6604 225.377 10.703 225.522 10.7882C225.667 10.8734 225.821 11.0499 225.986 11.3177C226.024 11.4638 226.044 11.6038 226.044 11.7377V12.3494C226.044 12.3494 226.034 12.5593 226.015 12.9793C226.373 12.9306 226.728 12.8728 227.081 12.8058C227.434 12.7389 227.789 12.7054 228.147 12.7054C228.408 12.7054 228.587 12.7115 228.684 12.7237C228.78 12.7358 228.877 12.8819 228.974 13.1619C229.051 13.4419 228.957 13.6549 228.691 13.801C228.425 13.947 228.106 14.0566 227.734 14.1296C227.361 14.2027 226.991 14.2575 226.624 14.294C226.257 14.3305 226.034 14.3488 225.957 14.3488C225.841 16.4425 225.722 18.518 225.601 20.5752C225.481 22.6324 225.42 24.72 225.42 26.8381C225.42 27.7876 225.444 28.7675 225.493 29.7778C225.541 30.7882 225.676 31.7438 225.899 32.6446C225.957 32.9245 226.053 33.1862 226.189 33.4297C226.324 33.6732 226.392 33.9349 226.392 34.2149C226.392 34.3853 226.339 34.5192 226.232 34.6166C226.126 34.7139 225.998 34.7961 225.848 34.8631C225.698 34.93 225.548 34.9696 225.398 34.9817C225.248 34.9939 225.125 35 225.028 35C224.419 35 223.955 34.7139 223.636 34.1418C223.317 33.5697 223.087 32.885 222.947 32.0876C222.807 31.2903 222.732 30.4717 222.722 29.6318C222.712 28.7918 222.708 28.1102 222.708 27.5867C222.708 26.5155 222.725 25.42 222.758 24.3001C222.792 23.1802 222.833 22.0724 222.882 20.9769C222.93 19.8813 222.998 18.8101 223.085 17.7632C223.172 16.7164 223.273 15.7425 223.389 14.8418C223.051 14.8904 222.72 14.9452 222.396 15.0061C222.072 15.067 221.741 15.0974 221.402 15.0974C221.325 15.0974 221.221 15.0913 221.09 15.0791C220.96 15.067 220.836 15.0365 220.72 14.9878C220.604 14.9391 220.505 14.8722 220.423 14.787C220.341 14.7018 220.3 14.58 220.3 14.4218Z" fill="black"/>
</svg>
